<svg width="222" height="43" viewBox="0 0 222 43" fill="none" xmlns="http://www.w3.org/2000/svg">
<path d="M210.922 34.4093C208.501 34.4093 206.375 33.9074 204.545 32.9036C202.714 31.8703 201.283 30.4679 200.249 28.6965C199.216 26.8956 198.699 24.8437 198.699 22.5409C198.699 20.2381 199.186 18.201 200.161 16.4296C201.164 14.6582 202.522 13.2706 204.235 12.2668C205.977 11.2335 207.925 10.7168 210.08 10.7168C212.265 10.7168 214.199 11.2187 215.882 12.2225C217.594 13.1968 218.937 14.5844 219.912 16.3853C220.886 18.1567 221.373 20.2086 221.373 22.5409C221.373 22.6885 221.358 22.8509 221.329 23.028C221.329 23.1757 221.329 23.338 221.329 23.5152H201.091V21.1681H219.646L218.406 22.0981C218.406 20.4152 218.037 18.9243 217.299 17.6253C216.59 16.2967 215.616 15.2634 214.376 14.5253C213.136 13.7872 211.704 13.4182 210.08 13.4182C208.486 13.4182 207.054 13.7872 205.785 14.5253C204.515 15.2634 203.526 16.2967 202.818 17.6253C202.109 18.9538 201.755 20.4743 201.755 22.1866V22.6738C201.755 24.4452 202.139 26.0099 202.906 27.368C203.703 28.6965 204.796 29.7446 206.183 30.5122C207.601 31.2503 209.21 31.6194 211.01 31.6194C212.428 31.6194 213.741 31.3684 214.952 30.8665C216.192 30.3646 217.255 29.597 218.14 28.5637L219.912 30.6008C218.878 31.8408 217.579 32.7855 216.015 33.435C214.479 34.0846 212.782 34.4093 210.922 34.4093Z" fill="#9A9A9A"/>
<path d="M180.652 43.0006C178.526 43.0006 176.489 42.6906 174.54 42.0706C172.592 41.4506 171.012 40.5649 169.802 39.4135L171.396 37.0221C172.489 37.9964 173.832 38.764 175.426 39.325C177.05 39.9154 178.762 40.2107 180.563 40.2107C183.515 40.2107 185.685 39.5169 187.073 38.1293C188.461 36.7712 189.154 34.6455 189.154 31.7522V25.9509L189.597 21.9652L189.287 17.9795V10.9382H192.299V31.3536C192.299 35.3688 191.31 38.3064 189.332 40.1664C187.383 42.0559 184.49 43.0006 180.652 43.0006ZM180.076 33.3022C177.862 33.3022 175.869 32.8298 174.098 31.8851C172.326 30.9108 170.924 29.5675 169.89 27.8551C168.887 26.1428 168.385 24.1795 168.385 21.9652C168.385 19.751 168.887 17.8024 169.89 16.1196C170.924 14.4072 172.326 13.0787 174.098 12.1339C175.869 11.1892 177.862 10.7168 180.076 10.7168C182.143 10.7168 184.003 11.1449 185.656 12.0011C187.309 12.8572 188.623 14.1267 189.597 15.8096C190.572 17.4924 191.059 19.5443 191.059 21.9652C191.059 24.3861 190.572 26.438 189.597 28.1208C188.623 29.8037 187.309 31.0879 185.656 31.9736C184.003 32.8593 182.143 33.3022 180.076 33.3022ZM180.386 30.5122C182.098 30.5122 183.619 30.1579 184.947 29.4494C186.276 28.7113 187.324 27.7075 188.092 26.438C188.859 25.139 189.243 23.648 189.243 21.9652C189.243 20.2824 188.859 18.8062 188.092 17.5367C187.324 16.2672 186.276 15.2782 184.947 14.5696C183.619 13.8315 182.098 13.4625 180.386 13.4625C178.703 13.4625 177.183 13.8315 175.825 14.5696C174.496 15.2782 173.448 16.2672 172.68 17.5367C171.942 18.8062 171.573 20.2824 171.573 21.9652C171.573 23.648 171.942 25.139 172.68 26.438C173.448 27.7075 174.496 28.7113 175.825 29.4494C177.183 30.1579 178.703 30.5122 180.386 30.5122Z" fill="#9A9A9A"/>
<path d="M153.518 34.1879V10.9382H156.529V17.271L156.219 16.1639C156.868 14.3925 157.961 13.0491 159.496 12.1339C161.031 11.1892 162.936 10.7168 165.209 10.7168V13.7725C165.091 13.7725 164.973 13.7725 164.855 13.7725C164.736 13.7429 164.618 13.7282 164.5 13.7282C162.05 13.7282 160.131 14.481 158.743 15.9867C157.356 17.4629 156.662 19.5738 156.662 22.3195V34.1879H153.518Z" fill="#9A9A9A"/>
<path d="M135.23 34.4093C132.987 34.4093 130.964 33.9074 129.163 32.9036C127.392 31.8703 125.99 30.4679 124.956 28.6965C123.923 26.8956 123.406 24.8437 123.406 22.5409C123.406 20.2086 123.923 18.1567 124.956 16.3853C125.99 14.6139 127.392 13.2263 129.163 12.2225C130.935 11.2187 132.957 10.7168 135.23 10.7168C137.533 10.7168 139.57 11.2187 141.342 12.2225C143.143 13.2263 144.545 14.6139 145.549 16.3853C146.582 18.1567 147.099 20.2086 147.099 22.5409C147.099 24.8437 146.582 26.8956 145.549 28.6965C144.545 30.4679 143.143 31.8703 141.342 32.9036C139.541 33.9074 137.504 34.4093 135.23 34.4093ZM135.23 31.6194C136.913 31.6194 138.404 31.2503 139.703 30.5122C141.002 29.7446 142.021 28.6818 142.759 27.3237C143.526 25.9361 143.91 24.3418 143.91 22.5409C143.91 20.7105 143.526 19.1162 142.759 17.7581C142.021 16.4 141.002 15.352 139.703 14.6139C138.404 13.8463 136.928 13.4625 135.275 13.4625C133.621 13.4625 132.145 13.8463 130.846 14.6139C129.547 15.352 128.514 16.4 127.746 17.7581C126.979 19.1162 126.595 20.7105 126.595 22.5409C126.595 24.3418 126.979 25.9361 127.746 27.3237C128.514 28.6818 129.547 29.7446 130.846 30.5122C132.145 31.2503 133.607 31.6194 135.23 31.6194Z" fill="#9A9A9A"/>
<path d="M102.095 18.2021H118.48V21.0363H102.095V18.2021ZM102.449 34.189H99.1719V3.18945H120.429V6.0237H102.449V34.189Z" fill="#9A9A9A"/>
<path d="M85.4245 34.1893V29.4065L85.1145 28.388V20.0181C85.1145 18.3943 84.6274 17.1396 83.6531 16.2539C82.6788 15.3386 81.2027 14.881 79.2246 14.881C77.896 14.881 76.5822 15.0877 75.2832 15.501C74.0137 15.9144 72.9361 16.4901 72.0504 17.2281L69.8804 13.1982C71.1499 12.2239 72.6556 11.5006 74.3975 11.0282C76.1689 10.5263 77.9994 10.2754 79.8889 10.2754C83.3136 10.2754 85.9559 11.102 87.8159 12.7554C89.7054 14.3791 90.6501 16.9034 90.6501 20.3281V34.1893H85.4245ZM77.9846 34.4993C76.2132 34.4993 74.6632 34.2041 73.3347 33.6136C72.0061 32.9936 70.9728 32.1522 70.2347 31.0894C69.5262 29.997 69.1719 28.7718 69.1719 27.4137C69.1719 26.0852 69.4819 24.8895 70.1019 23.8266C70.7514 22.7638 71.7995 21.9224 73.2461 21.3024C74.6927 20.6824 76.6118 20.3724 79.0032 20.3724H85.8673V24.048H79.4017C77.5122 24.048 76.2427 24.358 75.5932 24.978C74.9437 25.5685 74.6189 26.3066 74.6189 27.1923C74.6189 28.1961 75.0175 28.9932 75.8146 29.5837C76.6118 30.1741 77.7189 30.4694 79.136 30.4694C80.4941 30.4694 81.7045 30.1594 82.7674 29.5394C83.8597 28.9194 84.6421 28.0042 85.1145 26.7937L86.0445 30.1151C85.5131 31.5027 84.5536 32.5803 83.166 33.3479C81.8079 34.1155 80.0808 34.4993 77.9846 34.4993Z" fill="#9A9A9A"/>
<path d="M55.07 34.4993C52.4424 34.4993 50.1396 33.9827 48.1615 32.9493C46.2129 31.8865 44.6925 30.4399 43.6001 28.6094C42.5373 26.779 42.0059 24.6976 42.0059 22.3652C42.0059 20.0033 42.5225 17.9219 43.5558 16.121C44.6187 14.2906 46.0653 12.8587 47.8958 11.8254C49.7557 10.792 51.8667 10.2754 54.2285 10.2754C56.5314 10.2754 58.5832 10.7773 60.3842 11.7811C62.1851 12.7849 63.6022 14.202 64.6355 16.0324C65.6688 17.8629 66.1855 20.0181 66.1855 22.4981C66.1855 22.7343 66.1707 23 66.1412 23.2952C66.1412 23.5904 66.1265 23.8709 66.0969 24.1366H46.3901V20.461H63.1741L61.0042 21.6124C61.0337 20.2543 60.7532 19.0586 60.1627 18.0253C59.5723 16.992 58.7604 16.1801 57.7271 15.5896C56.7233 14.9991 55.5571 14.7039 54.2285 14.7039C52.8705 14.7039 51.6748 14.9991 50.6414 15.5896C49.6377 16.1801 48.8405 17.0067 48.2501 18.0696C47.6891 19.1029 47.4086 20.3281 47.4086 21.7452V22.6309C47.4086 24.048 47.7334 25.3028 48.3829 26.3952C49.0324 27.4875 49.9476 28.3289 51.1286 28.9194C52.3095 29.5099 53.6676 29.8051 55.2028 29.8051C56.5314 29.8051 57.7271 29.5984 58.7899 29.1851C59.8527 28.7718 60.7975 28.1223 61.6241 27.2366L64.5912 30.6465C63.5284 31.8865 62.1851 32.846 60.5613 33.525C58.967 34.1746 57.1366 34.4993 55.07 34.4993Z" fill="#9A9A9A"/>
<path d="M23.5605 34.4996C21.2872 34.4996 19.2353 33.9977 17.4049 32.9939C15.6039 31.9606 14.1868 30.5435 13.1535 28.7425C12.1202 26.9416 11.6035 24.8159 11.6035 22.3655C11.6035 19.915 12.1202 17.7894 13.1535 15.9884C14.1868 14.1875 15.6039 12.7851 17.4049 11.7814C19.2353 10.7776 21.2872 10.2757 23.5605 10.2757C25.5385 10.2757 27.31 10.7185 28.8747 11.6042C30.4394 12.4604 31.6794 13.7742 32.5946 15.5456C33.5099 17.317 33.9675 19.5903 33.9675 22.3655C33.9675 25.1112 33.5246 27.3845 32.6389 29.1854C31.7532 30.9568 30.528 32.2853 28.9633 33.171C27.3985 34.0567 25.5976 34.4996 23.5605 34.4996ZM24.2248 29.7611C25.5533 29.7611 26.7342 29.4659 27.7676 28.8754C28.8304 28.2849 29.6718 27.4287 30.2918 26.3069C30.9413 25.185 31.2661 23.8712 31.2661 22.3655C31.2661 20.8303 30.9413 19.5165 30.2918 18.4241C29.6718 17.3022 28.8304 16.446 27.7676 15.8556C26.7342 15.2651 25.5533 14.9699 24.2248 14.9699C22.8962 14.9699 21.7005 15.2651 20.6377 15.8556C19.6044 16.446 18.7629 17.3022 18.1134 18.4241C17.4934 19.5165 17.1834 20.8303 17.1834 22.3655C17.1834 23.8712 17.4934 25.185 18.1134 26.3069C18.7629 27.4287 19.6044 28.2849 20.6377 28.8754C21.7005 29.4659 22.8962 29.7611 24.2248 29.7611ZM31.3989 34.1896V28.6097L31.6204 22.3212L31.1775 16.0327V1.33008H36.6689V34.1896H31.3989Z" fill="#9A9A9A"/>
<path d="M0.752846 34.1881V10.5398H6.28848V34.1881H0.752846ZM3.54281 6.64276C2.50949 6.64276 1.65331 6.318 0.974271 5.66849C0.324757 5.01897 0 4.2366 0 3.32138C0 2.37663 0.324757 1.59426 0.974271 0.97427C1.65331 0.324757 2.50949 0 3.54281 0C4.57612 0 5.41754 0.309995 6.06705 0.929984C6.74609 1.52045 7.08561 2.2733 7.08561 3.18852C7.08561 4.16279 6.76085 4.98945 6.11134 5.66849C5.46182 6.318 4.60565 6.64276 3.54281 6.64276Z" fill="#9A9A9A"/>
</svg>
