<svg width="302" height="31" viewBox="0 0 302 31" fill="none" xmlns="http://www.w3.org/2000/svg">
<path d="M36.0152 14.2574L35.8346 14.1992L16.9126 8.18114C16.7262 8.12288 16.5281 8.09375 16.3359 8.09375C15.6892 8.09375 15.0775 8.41999 14.8387 8.95596C14.6814 9.29968 14.6814 9.67836 14.8387 10.0221C15.0251 10.4415 15.4212 10.7678 15.9223 10.9251L32.1877 16.0634C32.6654 16.2149 32.9741 16.5935 32.9741 17.0363C32.9741 17.4791 32.6654 17.8577 32.1877 18.0092L16.3825 23.0019C15.6426 23.2349 15.1474 23.8291 15.1474 24.4816V30.1909L18.1477 29.049C18.3924 28.9558 18.5555 28.7053 18.5555 28.4198L18.5671 25.3613L18.6778 25.3264L36.0093 19.8152C37.4075 19.3608 38.3163 18.2714 38.3163 17.0363C38.3163 15.8012 37.4133 14.7118 36.0093 14.2574H36.0152Z" fill="#9A9A9A"/>
<path d="M2.48176 12.2938L15.1527 16.3253V21.7898L18.1646 20.8869C18.3976 20.7995 18.5608 20.549 18.5608 20.2635L18.5724 17.4147L22.9184 18.7954L23.4602 17.5836C23.6175 17.2283 23.6175 16.8379 23.4602 16.4826C23.2679 16.0515 22.8601 15.7136 22.3475 15.5505L6.13449 10.4296C5.65678 10.2781 5.34802 9.89946 5.34802 9.4567C5.34802 9.01394 5.65678 8.63527 6.13449 8.4838L22.3999 3.34547C22.9009 3.18818 23.2971 2.85611 23.4835 2.44248C23.6408 2.09876 23.6408 1.72009 23.4835 1.37637C23.1747 0.6831 22.2426 0.33938 21.4095 0.60154L2.30699 6.67781C0.908815 7.13222 0 8.22164 0 9.4567C0 10.6918 0.902989 11.7812 2.30699 12.2356L2.47593 12.2938H2.48176Z" fill="#9A9A9A"/>
<path d="M150.144 9.77475V7.99537C150.144 7.28361 150.073 6.76166 149.943 6.41765C149.812 6.07363 149.587 5.75334 149.278 5.44491C148.97 5.13649 148.4 4.93483 147.558 4.8162C146.716 4.69757 145.767 4.65013 144.711 4.65013H143.928C142.445 4.65013 141.366 4.73316 140.69 4.89924C140.014 5.06532 139.456 5.37374 139.029 5.81266C138.602 6.25157 138.294 6.88029 138.128 7.67508C137.95 8.46988 137.867 9.44261 137.867 10.5814V18.0192C137.867 19.336 137.973 20.4511 138.187 21.3645C138.4 22.2779 138.744 22.9066 139.243 23.2625C139.788 23.7133 140.405 23.998 141.117 24.0929C141.817 24.1996 142.861 24.2471 144.249 24.2471H146.621C146.989 24.1996 147.262 24.1759 147.44 24.1759C148.056 24.0454 148.495 23.9268 148.756 23.7963C149.017 23.6658 149.29 23.4642 149.587 23.1913C149.978 22.7643 150.227 22.1949 150.322 21.5068C150.417 20.8069 150.465 19.8224 150.465 18.5293H155.72V20.9967C155.72 22.2423 155.589 23.3218 155.316 24.259C154.972 25.4452 154.427 26.3824 153.691 27.0704C152.279 28.2092 150.453 28.7786 148.211 28.7786C145.969 28.7786 146.645 28.8142 145.435 28.8972C144.225 28.9684 143.359 29.0158 142.849 29.0158C140.88 29.0158 139.231 28.8142 137.926 28.4227C136.621 28.0312 135.589 27.45 134.853 26.6908C133.845 25.6587 133.193 24.0692 132.896 21.9458C132.695 20.5578 132.6 18.1379 132.6 14.6977C132.6 11.2576 132.623 9.79848 132.671 9.03928C132.849 6.45324 133.501 4.40101 134.628 2.8826C135.34 1.96919 136.372 1.29302 137.7 0.83038C139.278 0.272839 141.496 0 144.367 0C147.238 0 149.349 0.142351 150.512 0.41519C151.674 0.699892 152.6 1.15067 153.288 1.77939C154.225 2.66908 154.854 3.9621 155.174 5.65845C155.352 6.59559 155.435 7.97164 155.435 9.79848H150.18L150.144 9.77475Z" fill="#9A9A9A"/>
<path d="M163.881 17.4865V28.6847H159.184V0.238281H163.881V11.7806C164.427 10.3926 165.352 9.4555 166.657 8.96913C167.499 8.6607 168.65 8.51835 170.133 8.51835C171.615 8.51835 172.351 8.63698 173.146 8.87423C173.952 9.11148 174.629 9.51481 175.198 10.0723C175.767 10.6299 176.171 11.401 176.42 12.3737C176.669 13.3464 176.788 14.3547 176.788 15.3868V28.6729H172.09V15.9918C172.09 15.1614 172.043 14.4971 171.948 14.0226C171.853 13.5362 171.615 13.1329 171.248 12.8126C170.655 12.3618 169.741 12.1246 168.508 12.1246C167.274 12.1246 165.601 12.5042 164.949 13.2634C164.557 13.643 164.273 14.1768 164.118 14.853C163.952 15.541 163.881 16.407 163.881 17.4746V17.4865Z" fill="#9A9A9A"/>
<path d="M198.627 19.6448H185.27L185.198 20.748C185.198 21.7326 185.282 22.5749 185.459 23.251C185.637 23.9391 185.946 24.4017 186.408 24.6508C186.859 24.8999 187.322 25.066 187.796 25.149C188.259 25.2202 188.947 25.2677 189.837 25.2677C190.726 25.2677 191.45 25.2439 191.925 25.1965C192.411 25.149 192.838 24.9592 193.241 24.6271C193.467 24.4491 193.633 24.2 193.763 23.8679C193.882 23.5357 193.953 23.0494 193.953 22.3851H198.651C198.651 23.5001 198.508 24.5085 198.224 25.3982C197.939 26.2997 197.476 27.0233 196.836 27.5809C196.314 28.0079 195.566 28.3401 194.594 28.5655C193.621 28.7908 192.031 28.9095 189.837 28.9095C187.642 28.9095 186.646 28.7908 185.578 28.5655C184.143 28.257 183.063 27.6758 182.34 26.7979C181.616 25.9201 181.106 24.6271 180.845 22.907C180.667 21.7682 180.584 20.2735 180.584 18.423C180.584 16.5724 180.726 14.8523 181.011 13.5593C181.296 12.2663 181.806 11.2461 182.541 10.4988C183.277 9.75143 184.249 9.22947 185.424 8.94477C186.61 8.6482 187.974 8.50586 189.528 8.50586C191.082 8.50586 192.292 8.61262 193.526 8.82614C194.76 9.03967 195.721 9.47858 196.409 10.131C197.524 11.1156 198.212 12.9543 198.484 15.6353C198.579 16.6436 198.627 17.9722 198.627 19.6211V19.6448ZM193.929 16.608C193.929 15.3624 193.882 14.5083 193.775 14.0457C193.68 13.583 193.514 13.2153 193.289 12.9662C192.945 12.6103 192.435 12.3849 191.782 12.2782C191.118 12.1714 190.359 12.1239 189.493 12.1239C188.627 12.1239 187.808 12.1833 187.215 12.3137C186.622 12.4442 186.171 12.6696 185.875 13.0136C185.578 13.3577 185.388 13.7847 185.317 14.3067C185.246 14.8286 185.21 15.5878 185.21 16.608H193.941H193.929Z" fill="#9A9A9A"/>
<path d="M206.952 11.6392H207.142C207.641 10.453 208.506 9.59889 209.776 9.10066C210.737 8.72106 211.899 8.53125 213.251 8.53125C214.604 8.53125 216.193 8.81595 217.178 9.36163C218.163 9.91917 218.779 10.8207 219.028 12.0544H219.171C219.633 10.714 220.511 9.7531 221.804 9.17183C222.765 8.74478 223.963 8.53125 225.399 8.53125C228.091 8.53125 229.93 9.19556 230.915 10.5004C231.65 11.485 232.03 13.1458 232.03 15.4709V28.6858H227.332V16.2301C227.332 14.7117 227.131 13.6677 226.739 13.1221C226.265 12.4696 225.387 12.1375 224.07 12.1375C222.753 12.1375 221.377 12.4578 220.737 13.0865C219.977 13.822 219.586 15.1387 219.586 17.0367V28.6976H214.888V16.0165C214.888 14.6286 214.699 13.6677 214.331 13.1339C213.856 12.4815 212.967 12.1493 211.65 12.1493C210.333 12.1493 208.874 12.4815 208.234 13.1339C207.486 13.8931 207.119 15.2692 207.119 17.274V28.7095H202.492V8.7685H206.976V11.6511L206.952 11.6392Z" fill="#9A9A9A"/>
<path d="M249.301 11.4127V0.25H253.999V28.6964H249.301L249.527 25.7308H249.384C248.91 26.8222 248.174 27.6288 247.166 28.1389C246.158 28.6609 244.924 28.9218 243.465 28.9218C242.006 28.9218 241.092 28.8032 240.203 28.566C239.313 28.3287 238.578 27.9017 237.984 27.2967C236.893 26.3121 236.241 24.6276 236.027 22.2432C235.932 21.2349 235.885 20.1673 235.885 19.0522C235.885 17.9371 235.885 17.344 235.908 16.5136C235.92 15.6832 235.992 14.7935 236.11 13.8564C236.252 13.1446 236.466 12.4922 236.715 11.899C236.976 11.3059 237.273 10.8314 237.617 10.4755C238.21 9.8231 238.933 9.32487 239.799 9.01644C240.665 8.69615 241.816 8.54194 243.24 8.54194C244.663 8.54194 245.778 8.70802 246.644 9.04017C247.878 9.49095 248.72 10.2976 249.159 11.4364H249.301V11.4127ZM244.71 12.1363C243.738 12.1363 242.979 12.2549 242.433 12.4922C241.887 12.7294 241.472 13.109 241.199 13.6073C240.926 14.1173 240.737 14.7817 240.642 15.6002C240.547 16.4187 240.487 17.4982 240.487 18.8031C240.487 20.1079 240.559 21.7687 240.689 22.4686C240.831 23.1685 241.069 23.726 241.413 24.1412C241.757 24.5564 242.184 24.8648 242.682 25.0546C243.18 25.2444 243.738 25.3393 244.366 25.3393C245.268 25.2088 246.17 25.0784 247.095 24.9241C247.64 24.7699 248.115 24.4734 248.518 24.0107C248.815 23.6074 249.017 22.9431 249.135 22.0178C249.242 21.0925 249.301 20.1198 249.301 19.1115V16.2289C249.23 15.873 249.171 15.6239 249.147 15.4697C248.993 14.3546 248.53 13.5242 247.747 12.9667C246.964 12.4091 245.944 12.1363 244.71 12.1363Z" fill="#9A9A9A"/>
<path d="M258.365 0.25H262.992V4.31886H258.365V0.25ZM258.365 8.75546H262.992V28.6964H258.365V8.75546Z" fill="#9A9A9A"/>
<path d="M283.798 14.2253H279.172C279.172 13.217 278.781 12.5289 277.986 12.1731C277.416 11.9239 276.55 11.7935 275.4 11.7935C274.249 11.7935 273.917 11.8172 273.454 11.8646C272.992 11.9121 272.565 12.0307 272.138 12.2086C271.865 12.4103 271.651 12.6594 271.509 12.9679C271.367 13.2763 271.283 13.7626 271.283 14.4507C271.283 15.1387 271.331 15.4234 271.426 15.6251C271.628 16.0521 272.138 16.3368 272.98 16.4792C273.822 16.6215 274.819 16.6927 275.981 16.6927C279.457 16.6927 281.746 17.1316 282.849 18.0213C283.953 18.911 284.498 20.5599 284.498 22.9917C284.498 25.4236 283.478 27.2978 281.426 28.1519C280.216 28.662 278.152 28.9111 275.246 28.9111H274.985C273.229 28.9111 271.983 28.8637 271.248 28.7569C269.896 28.579 268.864 28.1875 268.176 27.5825C267.63 27.0013 267.25 26.3963 267.025 25.7557C266.728 24.9253 266.586 23.8221 266.586 22.446H271.283C271.283 23.1934 271.355 23.7747 271.485 24.2136C271.616 24.6525 271.936 24.9965 272.434 25.2575C272.932 25.5184 273.68 25.6489 274.688 25.6489H276.681C277.737 25.6489 278.496 25.5066 278.935 25.2338C279.552 24.8542 279.86 24.1187 279.86 23.0273C279.86 21.936 279.433 21.1649 278.567 20.7378C277.95 20.4413 277.013 20.2871 275.756 20.2871C273.68 20.2871 272.031 20.2159 270.797 20.0617C269.563 19.9075 268.614 19.5397 267.95 18.9585C267.428 18.4721 267.072 17.8671 266.882 17.1316C266.681 16.3961 266.586 15.5539 266.586 14.593V13.988C266.586 12.6238 266.823 11.5562 267.31 10.7851C267.796 10.0141 268.531 9.44467 269.552 9.10066C270.311 8.85155 271.177 8.68547 272.126 8.62616C273.075 8.56684 274.166 8.53125 275.4 8.53125C276.633 8.53125 278.259 8.57871 279.172 8.68547C280.085 8.79223 280.892 9.06507 281.58 9.51585C282.268 9.96663 282.79 10.5123 283.134 11.1529C283.573 11.9595 283.798 12.9916 283.798 14.2253Z" fill="#9A9A9A"/>
<path d="M288.01 22.693V12.4437H285.602V8.75445H288.01V4.19922H292.636V8.75445H300.145V12.4437H292.636V22.776C292.636 23.7843 292.755 24.4605 293.004 24.7926C293.253 25.1248 293.81 25.2909 294.688 25.2909C295.566 25.2909 296.171 25.0299 296.515 24.5079C296.859 23.986 297.037 23.2624 297.037 22.3252V21.0678H301.141C301.141 23.9741 300.762 25.9789 299.991 27.0703C299.516 27.699 298.816 28.1735 297.867 28.47C296.918 28.7785 295.863 28.9208 294.7 28.9208C293.538 28.9208 292.517 28.8615 291.782 28.731C290.643 28.5294 289.836 28.1735 289.338 27.6515C288.84 27.1296 288.496 26.4653 288.306 25.6349C288.105 24.8164 288.01 23.8318 288.01 22.693Z" fill="#9A9A9A"/>
<path d="M63.2027 1.54297H68.529V20.6892C68.529 22.255 68.4341 23.4887 68.2324 24.3903C67.9122 25.885 67.2953 26.9882 66.3819 27.7237C65.5871 28.3287 64.6737 28.732 63.6298 28.9336C62.5859 29.1234 61.1268 29.2302 59.2763 29.2302C57.4257 29.2302 55.7057 29.0879 54.5787 28.7913C53.1671 28.4236 52.1469 27.8067 51.5063 26.917C50.9844 26.229 50.6404 25.446 50.4506 24.5564C50.2608 23.6667 50.1777 22.3499 50.1777 20.618V18.2692H55.3261V21.4958C55.3261 22.6939 55.5989 23.548 56.1446 24.0581C56.4174 24.3547 56.7377 24.5326 57.1292 24.6038C57.5088 24.675 58.1968 24.7106 59.1814 24.7106C60.1659 24.7106 61.2454 24.6513 61.6606 24.5326C62.0758 24.414 62.408 24.2005 62.6571 23.892C62.9062 23.5836 63.0604 23.1922 63.1197 22.7177C63.179 22.2432 63.2146 21.5433 63.2146 20.618V1.55483L63.2027 1.54297Z" fill="#9A9A9A"/>
<path d="M73.084 1.54297H81.9334L93.8552 24.4852H93.9976L93.5586 1.54297H98.9205V28.993H89.9999L78.2323 6.05075H78.0069L78.3035 17.4269L78.4458 28.993H73.084V1.54297Z" fill="#9A9A9A"/>
<path d="M103.652 1.54297H109.014V12.765H111.529L120.782 1.54297H127.294L116.084 14.9595L128.445 28.993H121.743L111.529 17.2609H109.014V28.993H103.652V1.54297Z" fill="#9A9A9A"/>
</svg>
