<svg width="253" height="43" viewBox="0 0 253 43" fill="none" xmlns="http://www.w3.org/2000/svg">
<mask id="mask0_1532_2649" style="mask-type:luminance" maskUnits="userSpaceOnUse" x="0" y="0" width="253" height="43">
<path d="M0 0H252.731V43H0V0Z" fill="white"/>
</mask>
<g mask="url(#mask0_1532_2649)">
<path d="M54.4047 25.1205C52.4767 24.0654 50.9883 22.6147 49.927 20.7558C48.8656 18.8969 48.3381 16.7993 48.3381 14.4568C48.3381 12.3404 48.9159 10.1612 50.0777 7.91924C51.2395 5.68351 52.9854 3.79947 55.3342 2.27969C57.6767 0.759895 60.5278 0 63.894 0C66.3997 0 68.6166 0.52125 70.5446 1.57003C72.4726 2.61881 73.961 4.06952 75.0223 5.91588C76.0837 7.76851 76.6112 9.86607 76.6112 12.2086C76.6112 14.325 76.0272 16.5104 74.8653 18.765C73.6972 21.0133 71.9451 22.9036 69.6026 24.4234C67.2601 25.9432 64.4089 26.7031 61.0554 26.7031C58.5496 26.7031 56.3327 26.1756 54.4047 25.1205ZM65.8031 19.2109C66.96 18.5259 67.9053 17.535 68.535 16.3472C69.1818 15.1414 69.5084 13.8163 69.5084 12.353C69.5084 11.2414 69.2384 10.2366 68.692 9.33226C68.1456 8.42793 67.3983 7.71827 66.4311 7.2033C65.464 6.68833 64.365 6.42457 63.1341 6.42457C61.652 6.42457 60.3269 6.77625 59.1588 7.47335C57.9907 8.17044 57.0863 9.12502 56.4395 10.3245C55.7926 11.5303 55.466 12.8491 55.466 14.2998C55.466 15.4114 55.7361 16.4162 56.2699 17.3269C56.8037 18.2375 57.5573 18.9534 58.5307 19.4747C59.5042 19.9959 60.5969 20.2597 61.8215 20.2597C63.3036 20.2722 64.6287 19.9206 65.8031 19.2109ZM82.3952 0.653133H89.4478L86.0628 19.8389H96.0105L94.9052 26.0876H77.9049L82.3952 0.653133ZM163.516 0.653133C165.261 0.653133 166.769 0.948299 168.044 1.53235C169.312 2.1164 170.286 2.95166 170.964 4.03184C171.636 5.11202 171.975 6.36177 171.975 7.78107C171.975 8.96802 171.749 10.1424 171.303 11.3042C170.857 12.4723 170.185 13.5462 169.293 14.5322C168.402 15.5182 167.309 16.3158 166.009 16.9249L169.526 26.0876H161.914L159.371 18.0302H156.563L155.144 26.0876H148.085L152.576 0.659413H163.516V0.653133ZM163.214 11.6622C163.76 11.3293 164.162 10.9274 164.42 10.4564C164.677 9.9854 164.803 9.53323 164.803 9.11246C164.803 8.47817 164.627 7.95064 164.282 7.52987C163.93 7.11538 163.396 6.90186 162.674 6.90186H158.523L157.587 12.1583H161.161C161.983 12.152 162.668 11.9888 163.214 11.6622ZM192.812 0.634292H186.231L171.46 26.0814H179.279L181.169 22.6398H190.796L191.544 26.0814H198.615L192.812 0.634292ZM184.196 16.8307L188.008 9.58347H188.209L189.609 16.8307H184.196ZM216.532 0.653133C218.178 0.653133 219.603 0.960859 220.815 1.57631C222.021 2.19176 222.951 3.05214 223.604 4.15744C224.251 5.26274 224.577 6.53761 224.577 7.98204C224.577 9.50183 224.175 11.1221 223.378 12.8366C222.58 14.551 221.337 16.0143 219.654 17.2201C217.971 18.4322 215.879 19.0351 213.386 19.0351H209.103L207.847 26.0876H200.801L205.291 0.659413H216.532V0.653133ZM215.854 12.1646C216.345 11.7716 216.742 11.2738 217.016 10.7076C217.28 10.155 217.412 9.69023 217.412 9.31342C217.412 8.9115 217.317 8.52841 217.123 8.1516C216.937 7.78436 216.657 7.4725 216.313 7.24726C215.961 7.0149 215.572 6.90186 215.132 6.90186H211.244L210.196 12.7926H214.064C214.749 12.7926 215.345 12.5791 215.854 12.1646ZM229.055 0.653133H236.107L234.462 10.0231H244.02L245.666 0.653133H252.737L248.247 26.0814H241.176L242.915 16.2467H233.357L231.617 26.0814H224.571L229.055 0.653133ZM132.027 16.523H138.408C137.924 17.7162 136.781 19.0476 135.701 19.5877C134.809 20.0336 133.716 20.2722 132.41 20.2722C131.273 20.2722 130.269 20.0022 129.383 19.4558C128.501 18.9209 127.786 18.1511 127.317 17.2327C126.827 16.2906 126.576 15.2356 126.576 14.0612C126.576 12.7047 126.89 11.4424 127.512 10.2743C128.133 9.10618 129.031 8.17672 130.193 7.47963C131.361 6.78253 132.705 6.43085 134.244 6.43085C135.613 6.43085 136.787 6.78253 137.767 7.48591C138.332 7.89412 138.791 8.43421 139.161 9.10618L146.189 6.71345C145.787 5.70235 145.247 4.77917 144.55 3.95648C143.463 2.68789 142.088 1.70819 140.417 1.02366C138.74 0.345407 136.863 0 134.778 0C131.562 0 128.799 0.759895 126.482 2.27969C124.171 3.79947 122.425 5.68351 121.244 7.93808C120.063 10.1864 119.479 12.3656 119.479 14.4757C119.479 16.8182 119.988 18.922 121.005 20.7747C122.023 22.6336 123.474 24.0843 125.37 25.1331C127.267 26.1818 129.471 26.7031 131.989 26.7031C134.47 26.7031 136.762 26.1316 138.872 24.9823C140.976 23.8331 142.703 22.1563 144.154 20.0273C145.623 17.867 146.798 14.5699 147.08 11.5805H134.539L132.027 16.523ZM38.0701 0.653133L27.3939 21.6413V0.653133H20.3413L10.582 19.8389H3.18402L0 26.0814L14.4443 26.0876L20.3413 14.5134V26.0814L32.1794 26.0876L38.0701 14.5134V26.0814H45.1227V0.653133H38.0701ZM113.928 0.653133L106.662 9.91004L102.611 0.653133H95.7405L102.51 16.4225L100.809 26.0876H107.855L109.538 16.4916L121.935 0.653133H113.928Z" fill="#9A9A9A"/>
<path d="M243.649 43.0019C242.914 43.0019 242.298 42.8637 241.702 42.556C241.137 42.2671 240.81 41.9154 240.641 41.6642C240.458 41.4005 240.32 41.1744 240.245 40.9106L242.016 40.3203C242.236 40.6971 242.631 40.942 242.845 41.055C243.165 41.2246 243.523 41.3 244.013 41.3C244.44 41.3 244.767 41.2434 245.005 41.1367C245.256 41.0174 245.426 40.8855 245.52 40.7285C245.608 40.5778 245.646 40.4333 245.646 40.2889C245.646 40.0942 245.57 39.8053 245.212 39.5792C244.968 39.4222 244.591 39.2715 244.063 39.1082C243.498 38.9386 243.021 38.7691 242.656 38.5995C242.305 38.4362 241.997 38.1913 241.74 37.8773C241.495 37.5759 241.369 37.1739 241.369 36.6904C241.369 36.2947 241.476 35.8677 241.689 35.4218C241.897 34.9822 242.28 34.5991 242.82 34.2725C243.366 33.9459 244.113 33.7764 245.055 33.7764C245.727 33.7764 246.286 33.902 246.87 34.1783C247.297 34.3856 247.687 34.6933 247.9 35.0198C248.064 35.2648 248.183 35.4532 248.252 35.6918L246.462 36.301C246.337 36.0812 246.048 35.8802 245.853 35.7672C245.596 35.629 245.231 35.5599 244.773 35.5599C244.314 35.5599 244 35.6479 243.806 35.8237C243.611 35.9995 243.517 36.2194 243.517 36.4643C243.517 36.6464 243.586 36.8097 243.718 36.9416C243.837 37.0546 244.013 37.1551 244.264 37.2493C244.497 37.3309 244.804 37.4189 245.212 37.5131C246.079 37.7077 246.745 38.0029 247.191 38.3923C247.624 38.7691 247.838 39.2715 247.838 39.9435C247.838 40.4082 247.699 40.8855 247.423 41.3502C247.153 41.8149 246.695 42.2106 246.079 42.5246C245.445 42.8386 244.628 43.0019 243.649 43.0019ZM121.042 33.9585H123.102L121.865 40.9608H125.57L125.25 42.7946H119.484L121.042 33.9585ZM133.645 42.6376C133.143 42.4053 132.754 42.0661 132.477 41.6265C132.201 41.1869 132.057 40.672 132.057 40.0753C132.057 39.8367 132.075 39.5981 132.119 39.3657L133.074 33.9459H135.128L134.198 39.215C134.167 39.4034 134.154 39.5604 134.154 39.6734C134.154 40.113 134.28 40.4647 134.525 40.7285C134.776 40.986 135.14 41.1178 135.63 41.1178C136.007 41.1178 136.352 41.0362 136.666 40.8666C136.979 40.7008 137.249 40.4648 137.454 40.1772C137.66 39.8895 137.797 39.558 137.853 39.2087L138.783 33.9397H140.842L139.882 39.3594C139.762 40.0565 139.492 40.6782 139.071 41.2246C138.651 41.771 138.123 42.198 137.483 42.512C136.842 42.8198 136.132 42.9768 135.366 42.9768C134.719 42.9893 134.148 42.8763 133.645 42.6376ZM151.556 33.9585C152.423 33.9585 153.082 34.1281 153.541 34.4672C153.999 34.8063 154.225 35.2899 154.225 35.9179C154.225 36.2131 154.169 36.5082 154.056 36.8034C153.941 37.0974 153.773 37.3678 153.56 37.601C153.346 37.8333 153.095 38.0092 152.806 38.1159C153.164 38.2478 153.459 38.4739 153.692 38.7816C153.924 39.0894 154.037 39.4411 154.037 39.8304C154.037 40.3014 153.905 40.7662 153.635 41.2246C153.371 41.6831 152.969 42.0599 152.442 42.355C151.914 42.6502 151.28 42.8009 150.545 42.8009H146.262L147.82 33.9648H151.556V33.9585ZM151.393 40.8541C151.581 40.7348 151.726 40.584 151.814 40.4019C151.902 40.2198 151.952 40.0314 151.952 39.8367C151.952 39.6043 151.87 39.4097 151.707 39.2589C151.544 39.1082 151.324 39.0328 151.06 39.0328H149.019L148.667 41.0362H150.683C150.96 41.0299 151.198 40.9671 151.393 40.8541ZM151.594 37.3498C151.751 37.243 151.877 37.1048 151.965 36.9353C152.052 36.7657 152.096 36.5962 152.096 36.4203C152.096 36.2068 152.027 36.0372 151.889 35.9116C151.751 35.786 151.563 35.7232 151.311 35.7232H149.597L149.283 37.5131H151.035C151.249 37.5068 151.431 37.4565 151.594 37.3498ZM165.417 33.9585C165.995 33.9585 166.497 34.059 166.924 34.2537C167.351 34.4484 167.678 34.731 167.904 35.0889C168.13 35.4532 168.243 35.8739 168.243 36.3512C168.24 37.2415 167.886 38.0946 167.257 38.7251C166.931 39.058 166.529 39.3217 166.064 39.5101L167.37 42.7884H165.141L164.117 39.8304H162.673L162.152 42.7884H160.092L161.649 33.9522H165.417V33.9585ZM165.442 37.9024C165.675 37.7643 165.851 37.5884 165.97 37.3749C166.089 37.1614 166.146 36.9541 166.146 36.7532C166.146 36.4706 166.064 36.2445 165.907 36.0623C165.744 35.8802 165.505 35.7923 165.191 35.7923H163.382L162.974 38.1159H164.595C164.921 38.1159 165.21 38.0406 165.442 37.9024ZM175.308 33.9585H177.368L175.811 42.7946H173.751L175.308 33.9585ZM185.3 42.443C184.668 42.0939 184.148 41.5736 183.799 40.942C183.447 40.3077 183.272 39.5918 183.272 38.8005C183.272 38.0406 183.479 37.2681 183.887 36.4831C184.295 35.6981 184.904 35.045 185.702 34.5174C186.5 33.9962 187.448 33.7324 188.547 33.7324C189.206 33.7324 189.828 33.8392 190.393 34.059C190.958 34.2788 191.448 34.6054 191.857 35.0575C192.258 35.5034 192.541 36.0623 192.692 36.7218L190.67 37.4126C190.55 36.8285 190.293 36.3826 189.897 36.0749C189.501 35.7672 188.993 35.6165 188.371 35.6165C187.768 35.6165 187.241 35.7546 186.782 36.0372C186.324 36.3198 185.972 36.6966 185.721 37.1614C185.47 37.6324 185.344 38.1348 185.344 38.6686C185.344 39.1208 185.445 39.529 185.639 39.8995C185.834 40.27 186.116 40.5589 186.468 40.7787C186.826 40.9922 187.228 41.099 187.687 41.099C188.277 41.099 188.779 40.9483 189.206 40.6531C189.633 40.358 190.004 39.9058 190.324 39.2966L192.095 40.0063C191.75 40.6657 191.329 41.2246 190.839 41.6642C190.349 42.1038 189.822 42.4367 189.257 42.6565C188.691 42.87 188.126 42.983 187.548 42.983C186.701 42.9893 185.947 42.8072 185.3 42.443ZM214.05 33.9585H215.607L219.093 39.4976V39.5039L220.054 33.9585H222.151L220.594 42.7946H218.992L215.538 37.2493L214.584 42.7946H212.492L214.05 33.9585ZM230.762 35.786H228.294L228.62 33.9522H235.61L235.284 35.786H232.815L231.578 42.7884H229.525L230.762 35.786ZM204.172 33.9522H202.244L197.063 42.7946H199.349L200.09 41.4695H203.87L204.178 42.7946H206.244L204.172 33.9522ZM201.051 39.7613L202.715 36.728H202.822L203.462 39.7613H201.051Z" fill="#9A9A9A"/>
</g>
</svg>
