<svg width="208" height="43" viewBox="0 0 208 43" fill="none" xmlns="http://www.w3.org/2000/svg">
<path d="M3.17188 36.5418V9.88812H9.31903L22.1256 27.6875V9.88812H27.9953V36.5418H21.656L9.04156 19.1605V36.5418H3.17188ZM54.6868 26.9705L60.2658 28.6468C59.4104 31.5942 57.9882 33.7832 55.9989 35.2139C54.0097 36.6446 51.4859 37.3599 48.4275 37.3599C44.6434 37.3599 41.5332 36.135 39.0968 33.6849C36.6605 31.2349 35.4423 27.8854 35.4423 23.6362C35.4423 19.1415 36.667 15.6507 39.1163 13.1639C41.5656 10.677 44.7859 9.43359 48.7774 9.43359C52.2634 9.43359 55.095 10.4099 57.2722 12.3625C58.5681 13.5169 59.54 15.1748 60.188 17.3362L54.4924 18.6257C54.1555 17.2257 53.4524 16.1204 52.3833 15.3099C51.3142 14.4994 50.015 14.0941 48.4858 14.0941C46.3734 14.0941 44.6596 14.8125 43.3442 16.2494C42.0289 17.6862 41.3712 20.0134 41.3712 23.231C41.3712 26.645 42.0191 29.0766 43.3151 30.5257C44.611 31.9749 46.2957 32.6994 48.3692 32.6994C49.8984 32.6994 51.2137 32.2389 52.3153 31.3178C53.4168 30.3968 54.2073 28.9477 54.6868 26.9705ZM85.0955 26.9705L90.6745 28.6468C89.8191 31.5942 88.3969 33.7832 86.4076 35.2139C84.4184 36.6446 81.8946 37.3599 78.8362 37.3599C75.0521 37.3599 71.9419 36.135 69.5055 33.6849C67.0692 31.2349 65.851 27.8854 65.851 23.6362C65.851 19.1415 67.0757 15.6507 69.525 13.1639C71.9743 10.677 75.1946 9.43359 79.1861 9.43359C82.6721 9.43359 85.5037 10.4099 87.6809 12.3625C88.9768 13.5169 89.9487 15.1748 90.5967 17.3362L84.9011 18.6257C84.5642 17.2257 83.8611 16.1204 82.792 15.3099C81.7229 14.4994 80.4237 14.0941 78.8945 14.0941C76.7821 14.0941 75.0683 14.8125 73.7529 16.2494C72.4376 17.6862 71.7799 20.0134 71.7799 23.231C71.7799 26.645 72.4278 29.0766 73.7238 30.5257C75.0197 31.9749 76.7044 32.6994 78.7779 32.6994C80.3071 32.6994 81.6224 32.2389 82.724 31.3178C83.8255 30.3968 84.616 28.9477 85.0955 26.9705Z" fill="#9A9A9A"/>
<path d="M39.4922 23.2309C39.4922 19.8306 40.1742 16.929 41.958 14.9804C43.6615 13.1196 45.896 12.2156 48.4857 12.2156C50.3647 12.2156 52.0777 12.7207 53.5181 13.8127C54.4568 14.5243 55.176 15.4067 55.6839 16.4289L57.6534 15.9831C57.1844 15.0371 56.6339 14.3096 56.0224 13.765L56.0178 13.7613C54.2494 12.1752 51.8941 11.3121 48.7774 11.3121C45.2105 11.3121 42.4991 12.4064 40.4545 14.4823C38.4431 16.5247 37.3209 19.4869 37.3209 23.6363C37.321 27.5099 38.4196 30.3395 40.4288 32.3601C42.4772 34.4199 45.0907 35.4808 48.427 35.4808C51.1904 35.4808 53.3036 34.8375 54.9015 33.6884C56.0958 32.8294 57.0873 31.5877 57.8323 29.8769L55.9151 29.3008C55.359 30.6888 54.5807 31.8722 53.52 32.7591C52.0576 33.9818 50.3078 34.5781 48.3692 34.5782C45.8012 34.5782 43.5931 33.6542 41.9149 31.7776C40.1502 29.8042 39.4922 26.7893 39.4922 23.2309ZM69.9006 23.2309C69.9006 19.8305 70.5835 16.929 72.3673 14.9804C74.0708 13.1198 76.3047 12.2157 78.8941 12.2156C80.7732 12.2156 82.4861 12.7207 83.9265 13.8127C84.8654 14.5244 85.5853 15.4065 86.0933 16.4289L88.0619 15.9831C87.5928 15.0371 87.0423 14.3096 86.4308 13.765L86.4263 13.7613C84.6577 12.1752 82.3027 11.3121 79.1858 11.3121C75.6189 11.3121 72.9075 12.4064 70.8629 14.4823C68.8516 16.5247 67.7293 19.487 67.7293 23.6363C67.7294 27.5099 68.828 30.3396 70.8372 32.3601C72.8856 34.42 75.4999 35.4808 78.8363 35.4808C81.5996 35.4808 83.7129 34.8376 85.3108 33.6884C86.5049 32.8294 87.4958 31.5875 88.2407 29.8769L86.3235 29.3008C85.7675 30.6887 84.99 31.8722 83.9293 32.7591C82.4668 33.982 80.7164 34.5782 78.7776 34.5782C76.2096 34.5782 74.0015 33.6542 72.3233 31.7776C70.5586 29.8042 69.9007 26.7892 69.9006 23.2309ZM10.2818 8.00876L20.2467 21.8595V8.00876H29.8741V38.4199H20.6981L10.9203 24.9472V38.4199H1.29297V8.00876H10.2818ZM5.05033 34.6626H7.16293V13.3733L22.6144 34.6626H26.1167V11.7661H24.0041V33.515L8.35546 11.7661H5.05033V34.6626ZM43.2496 23.2309C43.2496 26.5004 43.8883 28.3484 44.7155 29.2733C45.6291 30.2948 46.7903 30.8208 48.3692 30.8208C49.4886 30.8208 50.3696 30.4952 51.1102 29.876C51.7982 29.3005 52.4374 28.2717 52.8604 26.5277L53.3282 24.6004L62.5886 27.3827L62.0694 29.1705C61.1272 32.4173 59.5044 35.006 57.0957 36.7385C54.7151 38.4506 51.7803 39.2382 48.427 39.2382C44.1954 39.2381 40.5891 37.8493 37.7649 35.0093C34.9016 32.1299 33.5636 28.2607 33.5636 23.6363C33.5636 18.7963 34.8907 14.7764 37.7777 11.845C40.6317 8.94742 44.3615 7.55469 48.7774 7.55469C52.6325 7.55473 55.941 8.64436 58.5267 10.9635C60.1471 12.4086 61.2691 14.4024 61.9869 16.7967L62.5648 18.724L53.0989 20.8669L52.6659 19.0653C52.4225 18.0538 51.9449 17.3354 51.2477 16.8068C50.55 16.2779 49.6648 15.973 48.4857 15.973C46.8507 15.973 45.6574 16.505 44.7302 17.5178C43.8833 18.4429 43.2496 20.1961 43.2496 23.2309ZM73.658 23.2309C73.658 26.5004 74.2968 28.3484 75.1239 29.2733C76.0375 30.2948 77.1986 30.8208 78.7776 30.8208C79.8971 30.8208 80.778 30.4952 81.5186 29.876C82.2067 29.3005 82.8467 28.272 83.2697 26.5277L83.7367 24.6004L92.9971 27.3827L92.4788 29.1705C91.5365 32.4174 89.913 35.006 87.5041 36.7385C85.1236 38.4506 82.1895 39.2381 78.8363 39.2382C74.6045 39.2382 70.9976 37.8494 68.1733 35.0093C65.31 32.1299 63.972 28.2607 63.972 23.6363C63.972 18.7963 65.2991 14.7764 68.1862 11.845C71.0402 8.94733 74.7699 7.5547 79.1858 7.55469C83.041 7.55469 86.3493 8.64435 88.9351 10.9635C90.5556 12.4087 91.6784 14.4023 92.3962 16.7967L92.9741 18.724L83.5082 20.8669L83.0743 19.0653C82.8309 18.0539 82.3541 17.3353 81.6571 16.8068C80.9593 16.2778 80.0734 15.973 78.8941 15.973C77.2591 15.973 76.0658 16.505 75.1386 17.5178C74.2917 18.4429 73.658 20.1961 73.658 23.2309Z" fill="#9A9A9A"/>
<path d="M107.806 24.8843H105.211V24.2991C105.211 23.7054 105.071 23.1923 104.791 22.7597C104.511 22.3272 104.04 22.1109 103.379 22.1109C103.022 22.1109 102.734 22.1788 102.513 22.3145C102.293 22.4502 102.115 22.6198 101.979 22.8233C101.843 23.0439 101.75 23.2941 101.699 23.5739C101.648 23.8538 101.623 24.1464 101.623 24.4518C101.623 24.808 101.636 25.1048 101.661 25.3423C101.687 25.5798 101.75 25.7918 101.852 25.9784C101.954 26.165 102.102 26.3261 102.297 26.4618C102.492 26.5975 102.759 26.7332 103.099 26.8689L105.083 27.6577C105.66 27.8782 106.126 28.1369 106.483 28.4338C106.839 28.7306 107.119 29.0741 107.322 29.4642C107.509 29.8713 107.636 30.3336 107.704 30.8509C107.772 31.3683 107.806 31.9577 107.806 32.6193C107.806 33.3826 107.729 34.0908 107.577 34.7439C107.424 35.3969 107.178 35.9525 106.839 36.4104C106.483 36.8854 106.016 37.2586 105.44 37.53C104.863 37.8014 104.159 37.9371 103.328 37.9371C102.7 37.9371 102.115 37.8268 101.572 37.6063C101.029 37.3858 100.563 37.0805 100.173 36.6903C99.7824 36.3002 99.4729 35.8464 99.2439 35.3291C99.0149 34.8117 98.9004 34.2477 98.9004 33.6371V32.6702H101.496V33.4844C101.496 33.9593 101.636 34.3876 101.916 34.7693C102.195 35.151 102.666 35.3418 103.328 35.3418C103.769 35.3418 104.112 35.2782 104.358 35.151C104.604 35.0237 104.795 34.8414 104.931 34.6039C105.066 34.3664 105.147 34.0823 105.172 33.7516C105.198 33.4208 105.211 33.0518 105.211 32.6447C105.211 32.1698 105.194 31.7796 105.16 31.4743C105.126 31.169 105.058 30.923 104.956 30.7364C104.837 30.5498 104.68 30.3972 104.485 30.2784C104.29 30.1597 104.032 30.0325 103.709 29.8968L101.852 29.1335C100.732 28.6755 99.9818 28.0691 99.6001 27.3142C99.2184 26.5594 99.0276 25.6137 99.0276 24.4772C99.0276 23.7987 99.1209 23.1541 99.3075 22.5435C99.4941 21.9328 99.774 21.407 100.147 20.9659C100.503 20.5249 100.957 20.1729 101.508 19.91C102.06 19.6471 102.717 19.5156 103.48 19.5156C104.125 19.5156 104.714 19.6344 105.249 19.8718C105.783 20.1093 106.245 20.4231 106.635 20.8133C107.416 21.6275 107.806 22.5604 107.806 23.6121V24.8843ZM111.219 24.8843V20.9659H113.814V24.8843H115.417V26.9198H113.814V34.0696C113.814 34.3749 113.844 34.6124 113.903 34.782C113.963 34.9517 114.06 35.0789 114.196 35.1637C114.332 35.2485 114.497 35.2994 114.692 35.3164C114.887 35.3333 115.129 35.3418 115.417 35.3418V37.7844H114.349C113.755 37.7844 113.259 37.6911 112.86 37.5045C112.462 37.318 112.143 37.0805 111.906 36.7921C111.669 36.5037 111.495 36.1772 111.384 35.8125C111.274 35.4478 111.219 35.0958 111.219 34.7566V26.9198H109.921V24.8843H111.219ZM118.042 37.7844V24.8843H120.637V26.2583C121.163 25.7833 121.68 25.4102 122.189 25.1388C122.698 24.8673 123.326 24.7316 124.072 24.7316V27.4796C123.818 27.3778 123.555 27.3269 123.283 27.3269C123.012 27.3269 122.719 27.3736 122.405 27.4669C122.092 27.5602 121.807 27.7171 121.553 27.9376C121.282 28.1581 121.061 28.4465 120.891 28.8027C120.722 29.1589 120.637 29.5999 120.637 30.1258V37.7844H118.042ZM134.253 32.314H129.114V34.0696C129.114 34.4767 129.228 34.7905 129.457 35.011C129.686 35.2315 129.996 35.3418 130.386 35.3418C130.878 35.3418 131.204 35.1976 131.365 34.9093C131.527 34.6209 131.624 34.3325 131.658 34.0442H134.253C134.253 35.1807 133.906 36.0966 133.21 36.7921C132.871 37.1483 132.464 37.4282 131.989 37.6318C131.514 37.8353 130.979 37.9371 130.386 37.9371C129.572 37.9371 128.88 37.7675 128.312 37.4282C127.744 37.089 127.307 36.6394 127.002 36.0797C126.815 35.7404 126.688 35.3503 126.62 34.9093C126.552 34.4682 126.518 33.9848 126.518 33.4589V29.2098C126.518 28.6839 126.552 28.2005 126.62 27.7595C126.688 27.3185 126.815 26.9283 127.002 26.5891C127.307 26.0293 127.744 25.5798 128.312 25.2405C128.88 24.9013 129.572 24.7316 130.386 24.7316C130.979 24.7316 131.518 24.8334 132.001 25.037C132.485 25.2405 132.896 25.5204 133.236 25.8766C133.914 26.64 134.253 27.5983 134.253 28.7518V32.314ZM129.114 30.2784H131.658V28.8027C131.658 28.3108 131.544 27.9418 131.315 27.6959C131.086 27.4499 130.776 27.3269 130.386 27.3269C129.996 27.3269 129.686 27.4499 129.457 27.6959C129.228 27.9418 129.114 28.3108 129.114 28.8027V30.2784ZM145.3 32.314H140.16V34.0696C140.16 34.4767 140.275 34.7905 140.504 35.011C140.733 35.2315 141.042 35.3418 141.432 35.3418C141.924 35.3418 142.251 35.1976 142.412 34.9093C142.573 34.6209 142.671 34.3325 142.704 34.0442H145.3C145.3 35.1807 144.952 36.0966 144.257 36.7921C143.917 37.1483 143.51 37.4282 143.035 37.6318C142.56 37.8353 142.026 37.9371 141.432 37.9371C140.618 37.9371 139.927 37.7675 139.359 37.4282C138.79 37.089 138.354 36.6394 138.048 36.0797C137.862 35.7404 137.734 35.3503 137.667 34.9093C137.599 34.4682 137.565 33.9848 137.565 33.4589V29.2098C137.565 28.6839 137.599 28.2005 137.667 27.7595C137.734 27.3185 137.862 26.9283 138.048 26.5891C138.354 26.0293 138.79 25.5798 139.359 25.2405C139.927 24.9013 140.618 24.7316 141.432 24.7316C142.026 24.7316 142.564 24.8334 143.048 25.037C143.531 25.2405 143.943 25.5204 144.282 25.8766C144.96 26.64 145.3 27.5983 145.3 28.7518V32.314ZM140.16 30.2784H142.704V28.8027C142.704 28.3108 142.59 27.9418 142.361 27.6959C142.132 27.4499 141.822 27.3269 141.432 27.3269C141.042 27.3269 140.733 27.4499 140.504 27.6959C140.275 27.9418 140.16 28.3108 140.16 28.8027V30.2784ZM148.84 24.8843V20.9659H151.435V24.8843H153.038V26.9198H151.435V34.0696C151.435 34.3749 151.465 34.6124 151.525 34.782C151.584 34.9517 151.681 35.0789 151.817 35.1637C151.953 35.2485 152.118 35.2994 152.313 35.3164C152.508 35.3333 152.75 35.3418 153.038 35.3418V37.7844H151.97C151.376 37.7844 150.88 37.6911 150.481 37.5045C150.083 37.318 149.765 37.0805 149.527 36.7921C149.29 36.5037 149.116 36.1772 149.006 35.8125C148.895 35.4478 148.84 35.0958 148.84 34.7566V26.9198H147.543V24.8843H148.84ZM160.37 28.4974C160.353 28.0563 160.213 27.7256 159.95 27.505C159.687 27.2845 159.386 27.1743 159.047 27.1743C158.64 27.1743 158.326 27.3057 158.106 27.5687C157.885 27.8316 157.775 28.1327 157.775 28.4719C157.775 28.7094 157.834 28.9426 157.953 29.1716C158.072 29.4006 158.377 29.6084 158.869 29.795L160.395 30.4057C161.362 30.7788 162.028 31.2877 162.393 31.9323C162.758 32.5769 162.94 33.2808 162.94 34.0442C162.94 34.587 162.842 35.0916 162.647 35.5581C162.452 36.0246 162.185 36.4359 161.846 36.7921C161.507 37.1483 161.099 37.4282 160.624 37.6318C160.15 37.8353 159.632 37.9371 159.072 37.9371C158.021 37.9371 157.139 37.6063 156.426 36.9448C156.07 36.6225 155.782 36.2196 155.561 35.7362C155.341 35.2527 155.222 34.6887 155.205 34.0442H157.648C157.698 34.4004 157.821 34.7311 158.016 35.0365C158.212 35.3418 158.555 35.4945 159.047 35.4945C159.42 35.4945 159.755 35.3715 160.052 35.1255C160.349 34.8796 160.497 34.5361 160.497 34.095C160.497 33.7388 160.404 33.4335 160.217 33.1791C160.031 32.9246 159.692 32.7041 159.2 32.5175L157.953 32.0595C157.139 31.7542 156.498 31.3004 156.032 30.6983C155.565 30.0961 155.332 29.3625 155.332 28.4974C155.332 27.9546 155.434 27.4499 155.637 26.9834C155.841 26.517 156.121 26.1141 156.477 25.7749C156.816 25.4356 157.215 25.1769 157.673 24.9988C158.131 24.8207 158.623 24.7316 159.149 24.7316C159.675 24.7316 160.162 24.8249 160.612 25.0115C161.061 25.1981 161.447 25.461 161.769 25.8003C162.092 26.1396 162.346 26.5424 162.533 27.0089C162.719 27.4754 162.813 27.9715 162.813 28.4974H160.37ZM168.999 34.0696C168.999 34.4767 169.114 34.7905 169.343 35.011C169.572 35.2315 169.881 35.3418 170.271 35.3418C170.763 35.3418 171.09 35.1976 171.251 34.9093C171.412 34.6209 171.51 34.3325 171.544 34.0442H174.139C174.139 35.1807 173.791 36.0966 173.096 36.7921C172.756 37.1483 172.349 37.4282 171.874 37.6318C171.399 37.8353 170.865 37.9371 170.271 37.9371C169.457 37.9371 168.766 37.7675 168.198 37.4282C167.63 37.089 167.193 36.6394 166.887 36.0797C166.701 35.7404 166.574 35.3503 166.506 34.9093C166.438 34.4682 166.404 33.9848 166.404 33.4589V29.2098C166.404 28.6839 166.438 28.2005 166.506 27.7595C166.574 27.3185 166.701 26.9283 166.887 26.5891C167.193 26.0293 167.63 25.5798 168.198 25.2405C168.766 24.9013 169.457 24.7316 170.271 24.7316C170.865 24.7316 171.404 24.8334 171.887 25.037C172.371 25.2405 172.782 25.5204 173.121 25.8766C173.8 26.64 174.139 27.6323 174.139 28.8536H171.544C171.544 28.3277 171.429 27.9418 171.2 27.6959C170.971 27.4499 170.662 27.3269 170.271 27.3269C169.881 27.3269 169.572 27.4499 169.343 27.6959C169.114 27.9418 168.999 28.3108 168.999 28.8027V34.0696ZM182.208 37.7844V36.4613H182.158C181.818 36.9363 181.475 37.301 181.127 37.5554C180.779 37.8099 180.292 37.9371 179.664 37.9371C179.359 37.9371 179.049 37.8904 178.735 37.7971C178.422 37.7039 178.12 37.53 177.832 37.2755C177.544 37.0381 177.31 36.6946 177.132 36.2451C176.954 35.7955 176.865 35.2146 176.865 34.5021C176.865 33.7727 176.925 33.1324 177.043 32.5811C177.162 32.0298 177.383 31.5676 177.705 31.1944C178.01 30.8382 178.426 30.571 178.952 30.3929C179.477 30.2148 180.147 30.1258 180.962 30.1258H181.242C181.343 30.1258 181.437 30.1343 181.521 30.1512C181.606 30.1682 181.708 30.1767 181.827 30.1767C181.946 30.1767 182.073 30.1851 182.208 30.2021V28.8536C182.208 28.4125 182.115 28.0479 181.929 27.7595C181.742 27.4711 181.403 27.3269 180.911 27.3269C180.572 27.3269 180.262 27.4372 179.982 27.6577C179.702 27.8782 179.52 28.2005 179.435 28.6246H176.916C176.984 27.4711 177.374 26.5382 178.087 25.8257C178.426 25.4865 178.833 25.2193 179.308 25.0243C179.783 24.8292 180.317 24.7316 180.911 24.7316C181.454 24.7316 181.962 24.8165 182.437 24.9861C182.912 25.1557 183.328 25.4102 183.684 25.7494C184.023 26.0887 184.295 26.5127 184.498 27.0216C184.702 27.5305 184.804 28.1242 184.804 28.8027V37.7844H182.208ZM182.208 32.2376C181.92 32.1867 181.683 32.1613 181.496 32.1613C180.936 32.1613 180.457 32.2928 180.058 32.5557C179.66 32.8186 179.46 33.2978 179.46 33.9933C179.46 34.4852 179.579 34.8838 179.817 35.1891C180.054 35.4945 180.385 35.6471 180.809 35.6471C181.25 35.6471 181.594 35.5029 181.839 35.2146C182.085 34.9262 182.208 34.5191 182.208 33.9933V32.2376ZM188.344 43.0005V24.8843H190.939V26.0547C191.262 25.6816 191.593 25.3677 191.932 25.1133C192.271 24.8589 192.763 24.7316 193.408 24.7316C194.476 24.7316 195.231 25.1387 195.672 25.953C195.825 26.2413 195.935 26.5975 196.003 27.0216C196.071 27.4457 196.105 28.0139 196.105 28.7264V33.6371C196.105 34.587 196.079 35.2739 196.028 35.698C195.926 36.5462 195.536 37.1822 194.858 37.6063C194.519 37.8268 194.027 37.9371 193.382 37.9371C192.873 37.9371 192.419 37.8226 192.021 37.5936C191.622 37.3646 191.279 37.0381 190.99 36.614H190.939V43.0005H188.344ZM193.509 29.0826C193.509 28.5567 193.408 28.1327 193.204 27.8104C193 27.4881 192.678 27.3269 192.237 27.3269C191.847 27.3269 191.533 27.4754 191.296 27.7722C191.058 28.0691 190.939 28.455 190.939 28.9299V33.9424C190.939 34.3495 191.062 34.6845 191.308 34.9474C191.554 35.2103 191.864 35.3418 192.237 35.3418C192.729 35.3418 193.064 35.1891 193.242 34.8838C193.42 34.5785 193.509 34.2223 193.509 33.8152V29.0826ZM207.38 32.314H202.24V34.0696C202.24 34.4767 202.355 34.7905 202.584 35.011C202.813 35.2315 203.122 35.3418 203.513 35.3418C204.004 35.3418 204.331 35.1976 204.492 34.9093C204.653 34.6209 204.751 34.3325 204.785 34.0442H207.38C207.38 35.1807 207.032 36.0966 206.337 36.7921C205.998 37.1483 205.59 37.4282 205.115 37.6318C204.641 37.8353 204.106 37.9371 203.513 37.9371C202.698 37.9371 202.007 37.7675 201.439 37.4282C200.871 37.089 200.434 36.6394 200.128 36.0797C199.942 35.7404 199.815 35.3503 199.747 34.9093C199.679 34.4682 199.645 33.9848 199.645 33.4589V29.2098C199.645 28.6839 199.679 28.2005 199.747 27.7595C199.815 27.3185 199.942 26.9283 200.128 26.5891C200.434 26.0293 200.871 25.5798 201.439 25.2405C202.007 24.9013 202.698 24.7316 203.513 24.7316C204.106 24.7316 204.645 24.8334 205.128 25.037C205.612 25.2405 206.023 25.5204 206.362 25.8766C207.041 26.64 207.38 27.5983 207.38 28.7518V32.314ZM202.24 30.2784H204.785V28.8027C204.785 28.3108 204.67 27.9418 204.441 27.6959C204.212 27.4499 203.903 27.3269 203.513 27.3269C203.122 27.3269 202.813 27.4499 202.584 27.6959C202.355 27.9418 202.24 28.3108 202.24 28.8027V30.2784Z" fill="#9A9A9A"/>
<path d="M93.1122 1.80071L79.7229 5.79199L79.4624 5.86996L79.2009 5.79658L66.1318 2.14471L53.2406 5.86905L52.9838 5.79658L39.955 2.14562L27.1969 5.86996L26.9354 5.79566L14.1938 2.14562L0.516454 6.05343L0 4.24722L14.1938 0.191721L27.1904 3.91423L39.9449 0.191721L53.2324 3.91514L66.1226 0.191721L66.3795 0.26419L79.445 3.91423L92.5755 0L93.1122 1.80071Z" fill="#9A9A9A"/>
</svg>
