<svg width="234" height="43" viewBox="0 0 234 43" fill="none" xmlns="http://www.w3.org/2000/svg">
<path d="M14.4805 0.02685C14.7228 0.0249561 14.9651 0.0225484 15.2074 0.0196658C15.8648 0.0134853 16.5221 0.0150044 17.1796 0.0182756C17.7286 0.0202773 18.2776 0.0184394 18.8266 0.0165754C20.1219 0.012203 21.4171 0.0139615 22.7124 0.0197376C24.0483 0.0256073 25.384 0.0221368 26.7199 0.0138916C27.8673 0.00708473 29.0146 0.00559504 30.1621 0.00847025C30.8472 0.0101636 31.5322 0.00995728 32.2173 0.0048388C32.8616 0.000296611 33.5057 0.00242463 34.15 0.00966027C34.3862 0.0112212 34.6225 0.010465 34.8587 0.00720236C36.6438 -0.0153697 36.6438 -0.0153697 37.2094 0.487518C37.4448 0.834772 37.6185 1.16609 37.781 1.5519C37.8622 1.68732 37.9433 1.82275 38.0269 1.96227C38.1205 2.13174 38.1205 2.13174 38.2161 2.30463C38.2896 2.43649 38.3631 2.56836 38.4388 2.70422C38.5159 2.84344 38.593 2.98267 38.6724 3.12611C39.4091 4.44327 40.1658 5.74662 40.9389 7.04267C41.7783 8.4509 42.6033 9.8662 43.414 11.2911C44.1627 12.607 44.9161 13.9198 45.6805 15.2267C45.852 15.5202 46.0235 15.8138 46.195 16.1074C46.4778 16.5916 46.7608 17.0757 47.044 17.5597C47.3101 18.0146 47.5754 18.47 47.8402 18.9257C47.9911 19.185 48.1429 19.4439 48.2946 19.7028C48.3859 19.86 48.4771 20.0173 48.5711 20.1792C48.6521 20.3182 48.7332 20.4571 48.8167 20.6002C48.9922 20.9407 49.1167 21.201 49.1608 21.5804C48.9716 21.993 48.7738 22.3668 48.5444 22.7563C48.4764 22.8752 48.4084 22.9941 48.3383 23.1166C48.1089 23.5162 47.8765 23.914 47.6435 24.3115C47.477 24.597 47.3104 24.8825 47.1439 25.168C46.8792 25.6214 46.6142 26.0747 46.3486 26.5275C45.6917 27.6496 45.0518 28.7802 44.4192 29.9161C43.7853 31.0543 43.1434 32.1859 42.4781 33.3061C41.8779 34.3191 41.2945 35.3417 40.7113 36.3647C39.7707 38.0148 38.8246 39.6617 37.8734 41.3057C37.7388 41.5385 37.7388 41.5385 37.6014 41.776C37.5223 41.9127 37.4432 42.0493 37.3617 42.1901C37.2432 42.398 37.1294 42.6087 37.0224 42.8227C33.8134 42.8546 30.6046 42.8787 27.3955 42.8935C25.9055 42.9005 24.4156 42.9101 22.9256 42.9257C21.6269 42.9394 20.3284 42.9482 19.0296 42.9512C18.3419 42.953 17.6544 42.9572 16.9668 42.9671C16.3193 42.9764 15.6722 42.9792 15.0247 42.9772C14.7873 42.9776 14.5498 42.9803 14.3124 42.9855C12.518 43.0232 12.518 43.0232 11.9524 42.5254C11.716 42.177 11.5436 41.8441 11.3798 41.4571C11.2833 41.2964 11.1868 41.1356 11.0873 40.9699C11.0039 40.8223 10.9205 40.6746 10.8345 40.5225C10.7389 40.3539 10.6432 40.1854 10.5447 40.0118C10.4707 39.8807 10.4707 39.8807 10.3952 39.7469C10.1289 39.275 9.86076 38.8041 9.59283 38.333C9.53869 38.2377 9.48454 38.1425 9.42875 38.0443C8.91925 37.1487 8.40113 36.2582 7.88053 35.3689C7.14582 34.1134 6.4159 32.8552 5.68991 31.5946C4.96032 30.328 4.22723 29.0635 3.48981 27.8014C3.31693 27.5048 3.14406 27.2083 2.9712 26.9117C2.63375 26.3329 2.29513 25.7548 1.95549 25.1773C1.74316 24.8157 1.53174 24.4536 1.3205 24.0914C1.16983 23.8337 1.01804 23.5767 0.86623 23.3197C0.774987 23.1629 0.683744 23.0061 0.589736 22.8446C0.5087 22.7065 0.427664 22.5684 0.344173 22.4261C0.145022 22.022 0.0298523 21.7267 0 21.2769C0.144063 20.9004 0.144063 20.9004 0.375179 20.5011C0.460529 20.3512 0.54588 20.2013 0.633818 20.0469C0.728215 19.8864 0.822612 19.7259 0.919869 19.5605C1.01661 19.392 1.11336 19.2236 1.21303 19.05C1.5145 18.5265 1.819 18.005 2.12423 17.4837C2.30073 17.1802 2.47716 16.8768 2.65351 16.5733C3.00081 15.9766 3.34938 15.3807 3.69844 14.7851C4.28676 13.7791 4.86589 12.768 5.44335 11.7558C5.51915 11.623 5.51915 11.623 5.59647 11.4875C5.85348 11.037 6.11035 10.5864 6.36714 10.1358C7.68931 7.81583 9.01397 5.49726 10.3462 3.18301C10.439 3.02143 10.5318 2.85984 10.6274 2.69337C10.7151 2.54122 10.8028 2.38908 10.8932 2.23232C11.0071 2.0345 11.0071 2.0345 11.1233 1.83269C11.2079 1.68996 11.2926 1.54723 11.3798 1.40017C11.4336 1.2506 11.4336 1.2506 11.4885 1.09801C12.0523 -0.195131 13.2621 0.0143157 14.4805 0.02685ZM16.6904 3.9796C16.9057 4.53321 17.1492 5.02705 17.4585 5.53484C17.5385 5.66706 17.6185 5.79928 17.701 5.9355C17.8787 6.24107 17.8787 6.24107 18.056 6.40729C18.5318 6.42176 19.0042 6.42634 19.48 6.42452C19.6295 6.42454 19.779 6.42456 19.933 6.42458C20.4297 6.42448 20.9264 6.4233 21.4231 6.42211C21.7665 6.42183 22.1098 6.42161 22.4532 6.42146C23.359 6.42088 24.2647 6.41939 25.1704 6.41771C26.0938 6.41616 27.0173 6.41547 27.9407 6.4147C29.7541 6.41307 31.5675 6.41048 33.3808 6.40729C33.4272 6.55035 33.4736 6.6934 33.5213 6.84079C33.6682 7.27057 33.8314 7.61153 34.0654 7.9981C34.1798 8.18905 34.1798 8.18905 34.2965 8.38387C34.3792 8.52022 34.462 8.65657 34.5472 8.79706C34.7268 9.09684 34.9062 9.39676 35.0854 9.69677C35.1792 9.85359 35.273 10.0104 35.3696 10.172C35.8492 10.98 36.3171 11.7946 36.7853 12.6093C37.4403 13.7472 38.0955 14.8851 38.7565 16.0195C38.9329 16.3229 39.1082 16.6268 39.2824 16.9314C39.7056 17.6664 40.1426 18.3766 40.6319 19.0697C41.9113 20.9144 41.9113 20.9144 41.8286 21.8092C41.6018 22.2832 41.3528 22.6695 41.0392 23.0878C40.6881 23.58 40.3994 24.1057 40.1004 24.6307C39.8315 25.102 39.557 25.5696 39.2811 26.0369C38.5603 27.2626 37.8546 28.4968 37.1532 29.7337C36.6756 30.5751 36.1935 31.4128 35.6947 32.2419C35.6079 32.3879 35.5211 32.534 35.4316 32.6845C35.2701 32.9557 35.1063 33.2257 34.9401 33.494C34.5256 34.1483 34.5256 34.1483 34.5188 34.8877C34.5939 35.0027 34.669 35.1177 34.7464 35.2362C34.8219 35.3811 34.8974 35.526 34.9752 35.6754C35.0561 35.8215 35.1371 35.9676 35.2206 36.1181C35.3023 36.2662 35.3841 36.4142 35.4683 36.5668C35.5305 36.6785 35.5927 36.7901 35.6568 36.9052C35.7569 36.9052 35.8571 36.9052 35.9602 36.9052C36.0211 36.7988 36.0819 36.6923 36.1446 36.5826C36.274 36.3562 36.274 36.3562 36.4059 36.1252C36.503 35.9554 36.6 35.7856 36.7 35.6107C36.9179 35.2292 37.1359 34.8478 37.3539 34.4663C37.9061 33.5002 38.4581 32.5339 39.0097 31.5674C39.9074 29.9945 40.806 28.4222 41.7109 26.8535C41.9019 26.5224 42.0925 26.191 42.2829 25.8595C42.7186 25.1018 43.1592 24.3482 43.6155 23.6027C43.7356 23.4039 43.7356 23.4039 43.8581 23.2012C44.0063 22.9564 44.1568 22.713 44.3098 22.4712C44.6891 21.8746 44.6891 21.8746 44.6913 21.1975C44.614 21.0735 44.5368 20.9495 44.4572 20.8217C44.361 20.6409 44.2654 20.4597 44.1703 20.2782C44.0516 20.0639 43.9322 19.85 43.8123 19.6363C43.7464 19.5182 43.6804 19.4001 43.6124 19.2784C42.7904 17.814 41.9397 16.3662 41.0903 14.9176C40.647 14.1613 40.2049 13.4043 39.763 12.6472C39.6761 12.4984 39.5893 12.3496 39.4998 12.1963C38.6623 10.76 37.8315 9.31975 37.0016 7.87896C36.9122 7.73255 36.8227 7.58614 36.7305 7.43529C36.4859 7.01631 36.3086 6.5962 36.1377 6.14249C35.7969 5.31842 35.4332 4.56822 34.7464 3.9796C33.4672 3.46264 31.9826 3.64506 30.6337 3.69807C30.2312 3.70345 29.8288 3.70769 29.4263 3.71043C28.4786 3.71935 27.5317 3.74294 26.5844 3.77197C25.5049 3.80433 24.4255 3.82008 23.3457 3.83452C21.1268 3.86456 18.9086 3.91519 16.6904 3.9796ZM13.2006 5.9521C13.0085 6.23076 12.827 6.51674 12.6506 6.80559C12.5516 6.96402 12.4526 7.12244 12.3507 7.28567C12.0994 7.86261 12.1442 8.08116 12.2902 8.68326C12.4639 9.06708 12.4639 9.06708 12.695 9.43539C12.7794 9.5772 12.8638 9.719 12.9508 9.8651C13.0885 10.0922 13.0885 10.0922 13.229 10.3238C13.4243 10.6518 13.6193 10.98 13.814 11.3083C13.9141 11.4767 14.0141 11.645 14.1171 11.8184C14.5832 12.6123 15.03 13.4165 15.4766 14.2214C16.1707 15.4691 16.8779 16.7077 17.6008 17.9388C18.4159 19.3271 19.2077 20.7268 19.9906 22.1334C20.5974 23.2211 21.2186 24.2995 21.8493 25.3737C22.6644 26.7619 23.4562 28.1616 24.239 29.5682C24.9298 30.8064 25.6412 32.0316 26.3596 33.254C27.1251 34.5604 27.8651 35.8802 28.5968 37.2057C28.6803 37.3561 28.7637 37.5065 28.8496 37.6615C28.9593 37.8603 28.9593 37.8603 29.0711 38.0632C29.3705 38.5719 29.3705 38.5719 29.7393 39.0295C30.0452 39.1124 30.0452 39.1124 30.3812 39.0887C30.5029 39.0868 30.6247 39.0848 30.7501 39.0828C30.9398 39.0752 30.9398 39.0752 31.1333 39.0674C31.2615 39.0646 31.3897 39.0619 31.5218 39.0591C31.8381 39.0519 32.1543 39.0411 32.4704 39.0295C32.2634 38.4783 32.0155 37.981 31.7195 37.4724C31.6295 37.3172 31.5396 37.1621 31.4469 37.0022C31.301 36.7523 31.301 36.7523 31.1523 36.4974C31.0498 36.321 30.9473 36.1446 30.8449 35.9681C30.6859 35.6942 30.5269 35.4203 30.3676 35.1465C30.0166 34.5428 29.6674 33.938 29.3196 33.3324C28.3618 31.6649 27.3944 30.0038 26.4107 28.3514C25.4726 26.7754 24.556 25.1885 23.6491 23.5945C22.9169 22.308 22.1748 21.0276 21.4272 19.75C20.7797 18.6429 20.1375 17.5329 19.4974 16.4215C18.5058 14.7003 17.5067 12.9835 16.5043 11.2685C16.2213 10.7836 15.9389 10.2983 15.6567 9.81294C15.5615 9.64926 15.4663 9.48557 15.3681 9.31693C15.1869 9.0054 15.0058 8.69379 14.8248 8.38209C14.3479 7.56295 13.8702 6.74617 13.3523 5.9521C13.3023 5.9521 13.2522 5.9521 13.2006 5.9521ZM20.3319 10.2006C20.668 11.0406 21.1126 11.834 21.5458 12.6283C24.2496 12.6283 26.9535 12.6283 29.7393 12.6283C29.8394 12.8786 29.9396 13.129 30.0427 13.3869C30.2001 13.6813 30.3626 13.9729 30.5287 14.2623C30.6266 14.4331 30.7244 14.6038 30.8252 14.7797C30.877 14.8696 30.9288 14.9595 30.9822 15.0522C31.1445 15.334 31.3058 15.6164 31.4669 15.8989C32.0038 16.8381 32.5493 17.7705 33.1141 18.6934C33.2134 18.8574 33.3127 19.0214 33.415 19.1904C33.6038 19.5011 33.795 19.8102 33.9891 20.1175C34.0735 20.2572 34.158 20.3969 34.245 20.5408C34.3201 20.6615 34.3952 20.7823 34.4726 20.9067C34.6454 21.4307 34.5103 21.6887 34.2912 22.1873C34.1373 22.4838 33.9751 22.7762 33.8064 23.0645C33.7107 23.2289 33.6151 23.3932 33.5165 23.5626C33.4154 23.7346 33.3143 23.9067 33.2101 24.084C33.1068 24.2619 33.0036 24.44 32.9005 24.6181C32.4691 25.3623 32.0352 26.1045 31.5843 26.837C31.5258 26.9339 31.4672 27.0307 31.4069 27.1304C31.2591 27.3737 31.1083 27.6152 30.9573 27.8565C30.7602 28.2485 30.7602 28.2485 30.8968 28.64C30.9655 28.7638 31.0341 28.8876 31.1048 29.0152C31.1768 29.1474 31.2488 29.2796 31.323 29.4159C31.4012 29.5465 31.4794 29.6772 31.56 29.8118C31.6774 30.0101 31.6774 30.0101 31.7971 30.2125C31.9893 30.5504 31.9893 30.5504 32.3187 30.6842C32.3795 30.5778 32.4404 30.4713 32.503 30.3617C32.6324 30.1353 32.6324 30.1353 32.7644 29.9043C32.8616 29.7342 32.9588 29.5641 33.0589 29.3889C33.2753 29.0102 33.4916 28.6316 33.7081 28.253C34.2281 27.3431 34.748 26.4331 35.2671 25.5226C35.489 25.1334 35.711 24.7442 35.933 24.3551C36.0394 24.1685 36.1457 23.9819 36.252 23.7952C36.4008 23.534 36.5497 23.2729 36.6987 23.0118C36.7834 22.8632 36.8681 22.7146 36.9553 22.5616C37.1202 22.2795 37.2963 22.004 37.4776 21.7321C37.4253 21.1677 37.2339 20.7514 36.9542 20.264C36.8767 20.1278 36.7991 19.9916 36.7192 19.8512C36.5923 19.6322 36.5923 19.6322 36.4628 19.4087C36.3748 19.255 36.2868 19.1012 36.1961 18.9428C35.9165 18.4557 35.6352 17.9695 35.3533 17.4837C35.2652 17.3316 35.1771 17.1796 35.0863 17.023C34.3349 15.7149 34.3349 15.7149 33.5502 14.4269C33.2637 13.9458 33.0781 13.4491 32.8831 12.9248C32.4506 11.8754 32.0116 10.9176 31.1048 10.2006C29.4724 9.63832 27.6606 9.83952 25.9651 9.95052C25.3297 9.98811 24.6938 10.0045 24.0577 10.0228C22.8143 10.0616 21.5735 10.1235 20.3319 10.2006ZM9.71078 12.0213C9.42582 12.4839 9.14589 12.9493 8.86678 13.4154C8.7859 13.5465 8.70502 13.6777 8.6217 13.8128C8.54591 13.9404 8.47011 14.068 8.39203 14.1995C8.32131 14.3163 8.25059 14.4331 8.17773 14.5535C8.00471 14.9998 8.04758 15.2104 8.19347 15.6629C8.37008 16.0338 8.37008 16.0338 8.59829 16.4055C8.68268 16.5486 8.76708 16.6917 8.85404 16.8391C8.99178 17.069 8.99178 17.069 9.13231 17.3035C9.32733 17.6332 9.52233 17.9629 9.7173 18.2927C9.81732 18.461 9.91734 18.6293 10.0204 18.8028C10.4778 19.5745 10.9287 20.3499 11.3798 21.1252C11.5568 21.4287 11.7338 21.7321 11.9109 22.0356C17.2215 31.1394 17.2215 31.1394 17.4873 31.5952C17.6633 31.8969 17.8393 32.1986 18.0154 32.5004C18.4733 33.2853 18.931 34.0704 19.3884 34.8557C19.5301 35.0989 19.5301 35.0989 19.6746 35.347C19.8537 35.6544 20.0327 35.9618 20.2116 36.2693C20.3745 36.5488 20.5392 36.8273 20.7059 37.1046C20.9389 37.5121 20.9389 37.5121 21.1393 37.9511C21.3443 38.3729 21.5197 38.6951 21.8493 39.0295C22.4602 39.2113 23.0207 39.1747 23.6511 39.1243C23.8134 39.1174 23.9757 39.1106 24.143 39.1035C24.5426 39.0857 24.9404 39.0608 25.3391 39.0295C24.5552 37.5104 23.7103 36.0321 22.8443 34.5584C22.1953 33.4515 21.5626 32.3366 20.9389 31.2153C20.16 29.8157 19.3615 28.4292 18.5504 27.048C17.904 25.9442 17.2748 24.8316 16.6525 23.7141C16.0189 22.5767 15.3777 21.4458 14.7127 20.3265C14.1536 19.383 13.6092 18.4312 13.066 17.4786C12.9079 17.2013 12.7496 16.9241 12.5913 16.647C11.7918 15.247 11.7918 15.247 11.4161 14.5856C11.1834 14.1761 10.9498 13.7672 10.716 13.3585C10.6483 13.2387 10.5807 13.1189 10.511 12.9955C10.2098 12.4129 10.2098 12.4129 9.71078 12.0213ZM23.8218 16.4215C23.8952 16.5499 23.9686 16.6783 24.0443 16.8105C24.5297 17.6594 25.0148 18.5083 25.4974 19.3588C25.7 19.7158 25.903 20.0726 26.1061 20.4295C26.2084 20.6095 26.3106 20.7897 26.4126 20.9699C27.0845 22.156 27.7808 23.3211 28.5254 24.4633C29.0018 23.8776 29.4125 23.2907 29.7962 22.6425C29.8827 22.5052 29.8827 22.5052 29.971 22.3651C30.1582 22.0614 30.1582 22.0614 30.3462 21.5804C30.1646 20.9744 29.842 20.446 29.5259 19.9007C29.4765 19.8153 29.4272 19.7299 29.3763 19.6419C29.2725 19.4624 29.1684 19.2832 29.0641 19.104C28.9048 18.8303 28.7462 18.5562 28.5877 18.282C28.0448 17.3398 28.0448 17.3398 27.4633 16.4215C27.0811 16.3583 27.0811 16.3583 26.6371 16.3771C26.3921 16.3793 26.3921 16.3793 26.1422 16.3815C25.8855 16.3873 25.8855 16.3873 25.6236 16.3931C25.4513 16.3951 25.2789 16.3972 25.1014 16.3993C24.6748 16.4047 24.2483 16.4122 23.8218 16.4215ZM5.61405 19.1527C5.40578 19.4895 5.20094 19.8276 4.99764 20.1674C4.93847 20.2624 4.87931 20.3573 4.81835 20.4552C4.48207 21.0123 4.48207 21.0123 4.43543 21.6442C4.56067 22.065 4.72647 22.3908 4.95141 22.7676C5.03502 22.9091 5.11864 23.0506 5.20479 23.1964C5.34165 23.4245 5.34165 23.4245 5.48128 23.6572C5.67619 23.9865 5.87099 24.3158 6.06568 24.6452C6.16666 24.8155 6.26763 24.9857 6.37166 25.1611C6.85896 25.9869 7.33636 26.8183 7.81415 27.6496C8.8944 29.5252 9.98421 31.395 11.0764 33.2637C12.197 35.1812 13.3173 37.0984 14.4144 39.0295C15.4159 39.0295 16.4173 39.0295 17.4491 39.0295C16.8091 37.8461 16.1508 36.6754 15.4766 35.5112C15.3777 35.3402 15.2788 35.1692 15.177 34.9929C14.2562 33.4008 13.3296 31.8121 12.4016 30.2242C11.9594 29.4674 11.5179 28.7102 11.0764 27.9531C10.9888 27.8031 10.9013 27.6531 10.8111 27.4985C10.3664 26.7363 9.92192 25.9739 9.47785 25.2113C9.03818 24.4562 8.59739 23.7018 8.15635 22.9476C7.87929 22.4724 7.60397 21.9962 7.32872 21.5199C7.14918 21.2113 6.96959 20.9027 6.78996 20.5941C6.70663 20.449 6.62329 20.3038 6.53743 20.1543C6.42186 19.9566 6.42186 19.9566 6.30395 19.7549C6.20266 19.5799 6.20266 19.5799 6.09932 19.4013C6.03932 19.3193 5.97932 19.2372 5.91751 19.1527C5.81737 19.1527 5.71722 19.1527 5.61405 19.1527Z" fill="#9A9A9A"/>
<path d="M107.509 10.048C108.917 11.3034 110.238 12.6755 111.219 14.2977C111.219 14.3978 111.219 14.498 111.219 14.6011C111.611 14.2364 111.901 13.8363 112.205 13.3968C115.033 9.48604 118.904 7.04843 123.661 6.25593C128.046 5.64793 132.696 6.53036 136.3 9.18919C136.703 9.51427 137.087 9.85198 137.469 10.2009C137.594 10.3046 137.719 10.4083 137.847 10.5151C140.886 13.0845 142.975 17.0155 143.386 20.9738C143.677 25.8215 142.899 30.4366 139.593 34.1744C139.483 34.3021 139.374 34.4299 139.261 34.5615C136.403 37.8313 132.445 40.0563 128.061 40.3954C122.787 40.6549 118.366 39.2824 114.417 35.7498C113.302 34.687 112.365 33.4903 111.523 32.2019C111.523 32.1018 111.523 32.0016 111.523 31.8985C111.423 31.8985 111.322 31.8985 111.219 31.8985C111.181 32.0066 111.143 32.1148 111.103 32.2262C109.666 35.533 105.946 38.0459 102.732 39.3654C101.889 39.6876 101.026 39.9055 100.143 40.0919C99.9919 40.126 99.8409 40.16 99.6853 40.1951C95.3115 41.0309 90.6496 40.1054 86.9423 37.6642C86.4101 37.2858 85.9148 36.8817 85.425 36.4504C85.301 36.3463 85.177 36.2423 85.0492 36.1351C81.809 33.3463 79.8232 29.465 79.3557 25.2223C79.0923 20.228 80.119 15.8411 83.4525 12.0217C83.5336 11.9221 83.6148 11.8226 83.6984 11.72C86.3455 8.48475 90.4537 6.60341 94.5502 6.16287C99.2455 5.74814 103.909 6.94566 107.509 10.048ZM87.2457 14.4494C84.7948 17.0533 83.6268 20.2745 83.718 23.8336C83.8828 27.3351 85.4503 30.393 87.9588 32.8088C90.706 35.1969 93.9285 36.2099 97.5402 36.0201C100.151 35.8212 102.351 34.8423 104.391 33.264C104.562 33.1329 104.562 33.1329 104.736 32.9991C107.069 31.0801 108.661 28.205 109.095 25.2223C109.325 21.5598 108.866 18.1276 106.391 15.2626C106.282 15.1444 106.173 15.0263 106.06 14.9046C105.876 14.6992 105.876 14.6992 105.688 14.4897C103.258 11.9146 100.105 10.6143 96.5819 10.5044C92.9565 10.4614 89.7824 11.9306 87.2457 14.4494ZM116.609 14.9994C114.124 17.8694 113.463 21.2031 113.647 24.9188C113.965 28.3016 115.869 31.0707 118.351 33.264C121.016 35.4507 124.226 36.1904 127.606 35.9952C129.107 35.8462 130.503 35.4574 131.855 34.7814C132.004 34.7066 132.154 34.6319 132.307 34.5549C133.543 33.8859 134.51 33.0354 135.496 32.0502C135.665 31.8838 135.665 31.8838 135.838 31.7141C138.123 29.3175 139.072 26.1079 139.039 22.8574C138.96 20.0451 138.056 17.5272 136.255 15.3598C136.147 15.2289 136.039 15.0981 135.928 14.9633C133.529 12.1798 130.47 10.7753 126.848 10.5044C122.743 10.3843 119.394 12.0476 116.609 14.9994Z" fill="#9A9A9A"/>
<path d="M209.743 9.97643C213.111 12.9657 215.576 16.8362 215.914 21.4292C216.138 26.246 215.197 30.605 211.969 34.3264C211.868 34.449 211.767 34.5716 211.664 34.698C208.867 37.991 204.729 40.033 200.437 40.3956C195.672 40.6422 191.17 39.5184 187.54 36.2989C184.107 33.201 181.962 29.279 181.623 24.6156C181.437 21.0048 182.135 17.7585 183.899 14.6013C183.981 14.4517 184.064 14.3021 184.149 14.1479C186.409 10.3379 190.352 7.64474 194.587 6.52581C199.877 5.36918 205.584 6.39148 209.743 9.97643ZM189.579 14.4686C188.23 15.8478 187.25 17.4746 186.63 19.305C186.582 19.4413 186.533 19.5776 186.483 19.7181C185.53 22.9816 186.087 26.5938 187.68 29.5368C188.074 30.2305 188.532 30.8444 189.058 31.4435C189.14 31.5454 189.222 31.6473 189.306 31.7523C191.325 34.2004 194.274 35.652 197.403 35.9954C200.846 36.2094 203.962 35.5047 206.658 33.2642C206.789 33.1563 206.92 33.0483 207.055 32.9371C209.654 30.6964 211.216 27.734 211.514 24.3121C211.762 20.5411 210.558 17.4241 208.138 14.5729C205.731 12.0126 202.689 10.6865 199.193 10.5158C195.387 10.4004 192.301 11.8907 189.579 14.4686Z" fill="#9A9A9A"/>
<path d="M59.0234 6.55859C70.2063 6.55859 70.2063 6.55859 72.4232 7.73451C72.5241 7.78687 72.6251 7.83922 72.7291 7.89317C75.3386 9.28853 77.3123 11.6301 78.2079 14.4486C79.1194 17.6529 78.7111 20.9757 77.1304 23.8862C76.5903 24.8099 75.8746 25.5467 75.1069 26.2836C74.9892 26.399 74.8714 26.5144 74.7501 26.6333C72.855 28.4079 72.855 28.4079 71.9206 28.4079C72.568 29.697 73.3496 30.8752 74.155 32.069C74.6545 32.8095 75.1428 33.5569 75.6285 34.3064C75.7094 34.4311 75.7902 34.5558 75.8736 34.6843C76.0388 34.9392 76.2041 35.1941 76.3692 35.4491C76.8109 36.1307 77.2533 36.8117 77.6958 37.4927C77.7772 37.6181 77.8585 37.7434 77.9424 37.8726C78.0192 37.9909 78.0961 38.1093 78.1753 38.2312C78.2473 38.3423 78.3193 38.4533 78.3935 38.5678C78.5775 38.8479 78.7663 39.1241 78.9565 39.4001C79.2037 39.7877 79.2037 39.7877 79.2037 40.0911C77.5258 40.5071 75.5115 40.8887 73.8931 40.0911C71.9035 38.5136 70.6979 35.7465 69.4929 33.5667C69.0797 32.83 68.6586 32.1001 68.2155 31.381C68.0667 31.1299 67.9339 30.8695 67.8019 30.6092C67.5095 30.0631 67.5095 30.0631 66.7617 29.47C65.6602 29.4199 64.5586 29.3698 63.4236 29.3182C63.4236 32.8733 63.4236 36.4284 63.4236 40.0911C61.9716 40.0911 60.5195 40.0911 59.0234 40.0911C59.0234 29.0254 59.0234 17.9597 59.0234 6.55859ZM63.4236 10.9588C63.4236 15.5653 63.4236 20.1719 63.4236 24.918C68.1937 25.1456 68.1937 25.1456 72.0723 23.0973C73.6976 21.3734 74.2946 19.6635 74.2339 17.3173C74.1138 15.4112 73.1793 13.9194 71.8127 12.6237C69.3611 10.5109 66.6423 10.9588 63.4236 10.9588Z" fill="#9A9A9A"/>
<path d="M174.035 6.71072C174.192 6.77145 174.192 6.77145 174.352 6.83341C176.282 7.69329 177.589 9.26018 178.444 11.1453C178.611 11.6369 178.679 12.1134 178.739 12.6282C178.171 12.8575 177.601 13.0845 177.032 13.311C176.871 13.3761 176.709 13.4413 176.543 13.5084C176.388 13.57 176.232 13.6316 176.072 13.6951C175.857 13.7809 175.857 13.7809 175.638 13.8685C175.249 13.9938 175.249 13.9938 174.642 13.9938C174.573 13.8099 174.573 13.8099 174.503 13.6222C174.022 12.3794 174.022 12.3794 173.125 11.4144C173.034 11.3373 172.942 11.2603 172.848 11.1809C172.179 10.7316 171.298 10.6197 170.502 10.6836C169.41 10.9214 168.73 11.4789 168.115 12.3728C167.643 13.1823 167.723 14.1537 167.814 15.0559C168.289 16.4498 169.685 17.3867 170.934 18.0242C171.609 18.3505 172.296 18.6482 172.985 18.9437C176.574 20.483 179.481 22.7372 181.008 26.418C181.872 28.9978 181.736 31.9166 180.629 34.3945C179.198 37.2105 176.945 39.1324 173.954 40.1164C171.433 40.7363 168.605 40.5712 166.297 39.3329C166.178 39.2709 166.058 39.2089 165.935 39.145C163.421 37.7461 161.761 35.5205 160.949 32.7895C160.744 32.0352 160.594 31.3109 160.531 30.5325C164.057 29.0152 164.057 29.0152 164.78 29.0152C164.795 29.1018 164.809 29.1885 164.825 29.2777C165.222 31.4342 165.744 33.5284 167.606 34.8616C169.177 35.8333 170.873 36.1344 172.692 35.7393C174.353 35.1787 175.712 34.0304 176.52 32.4671C177.133 31.177 177.116 29.4665 176.814 28.0858C175.951 25.7933 173.899 24.2764 171.759 23.2494C171.19 22.9998 170.609 22.7779 170.029 22.5542C167.333 21.4916 164.974 19.8513 163.718 17.1802C163.32 16.1361 163.191 15.1822 163.206 14.0697C163.204 13.9373 163.202 13.8048 163.2 13.6684C163.209 11.6496 164.039 9.87619 165.415 8.40821C167.725 6.24729 171.066 5.55016 174.035 6.71072Z" fill="#9A9A9A"/>
<path d="M145.207 6.55859C150.565 6.55859 155.922 6.55859 161.442 6.55859C161.442 8.01066 161.442 9.46272 161.442 10.9588C157.537 10.9588 153.631 10.9588 149.607 10.9588C149.607 14.3136 149.607 17.6683 149.607 21.1248C153.513 21.1248 157.418 21.1248 161.442 21.1248C161.442 22.5768 161.442 24.0289 161.442 25.525C157.537 25.525 153.631 25.525 149.607 25.525C149.607 30.3318 149.607 35.1386 149.607 40.0911C148.155 40.0911 146.703 40.0911 145.207 40.0911C145.207 29.0254 145.207 17.9597 145.207 6.55859Z" fill="#9A9A9A"/>
<path d="M14.4141 0.187024C17.3262 0.155118 20.2384 0.13104 23.1507 0.11627C24.5029 0.10923 25.8551 0.0996325 27.2073 0.0840055C28.3859 0.0703907 29.5644 0.0615836 30.7431 0.0585387C31.3673 0.0567589 31.9911 0.0525795 32.6152 0.0426413C33.2029 0.0333587 33.7902 0.0305151 34.3779 0.0325665C34.5933 0.0321914 34.8088 0.0294817 35.0242 0.0242395C36.6519 -0.0134305 36.6519 -0.0134305 37.197 0.487031C37.4319 0.834023 37.6118 1.16985 37.7806 1.5526C37.8618 1.68802 37.9429 1.82345 38.0265 1.96297C38.1202 2.13244 38.1202 2.13244 38.2157 2.30533C38.2892 2.4372 38.3627 2.56906 38.4384 2.70492C38.5155 2.84414 38.5926 2.98337 38.6721 3.12681C39.4087 4.44397 40.1654 5.74732 40.9385 7.04337C41.7779 8.45161 42.603 9.8669 43.4136 11.2918C44.1623 12.6077 44.9157 13.9205 45.6801 15.2274C45.8516 15.5209 46.0231 15.8145 46.1946 16.1081C46.4774 16.5923 46.7604 17.0764 47.0436 17.5604C47.3097 18.0153 47.575 18.4707 47.8398 18.9264C47.9908 19.1857 48.1425 19.4446 48.2943 19.7035C48.3855 19.8607 48.4767 20.018 48.5707 20.18C48.6518 20.3189 48.7328 20.4578 48.8163 20.6009C48.9918 20.9414 49.1164 21.2017 49.1605 21.5811C48.9713 21.9937 48.7734 22.3675 48.544 22.757C48.476 22.8759 48.408 22.9948 48.3379 23.1173C48.1085 23.5169 47.8761 23.9147 47.6431 24.3122C47.4766 24.5977 47.31 24.8832 47.1435 25.1687C46.8788 25.6221 46.6138 26.0754 46.3482 26.5282C45.6913 27.6503 45.0514 28.7809 44.4189 29.9168C43.7856 31.0538 43.1448 32.1845 42.4797 33.3031C41.8583 34.3512 41.2569 35.4108 40.654 36.4697C39.816 37.9415 38.9685 39.4064 38.0841 40.8509C37.4644 40.281 37.0929 39.551 36.6711 38.831C36.5838 38.6887 36.4964 38.5464 36.4065 38.3998C35.7916 37.3473 35.7916 37.3473 35.8668 36.7204C35.9476 36.5813 36.0284 36.4423 36.1116 36.299C36.2027 36.1327 36.2939 35.9665 36.3878 35.7952C36.5036 35.6023 36.6202 35.4099 36.7375 35.2179C36.8751 34.9883 37.0124 34.7585 37.1494 34.5286C37.2255 34.401 37.3015 34.2734 37.3799 34.1419C37.8606 33.3266 38.327 32.5031 38.7953 31.6807C39.0059 31.3114 39.2165 30.9421 39.4272 30.5729C39.4797 30.4808 39.5323 30.3887 39.5864 30.2938C40.0299 29.5169 40.4758 28.7414 40.923 27.9666C41.1094 27.6437 41.2953 27.3207 41.4809 26.9974C41.9224 26.2296 42.3676 25.4646 42.8249 24.7061C43.0429 24.3438 43.259 23.9804 43.4748 23.6168C43.6285 23.3599 43.7851 23.1048 43.9418 22.8497C44.0796 22.6169 44.0796 22.6169 44.2203 22.3795C44.3028 22.2433 44.3852 22.1071 44.4702 21.9668C44.6498 21.5826 44.6498 21.5826 44.499 21.1858C44.435 21.0659 44.371 20.946 44.3051 20.8224C44.2589 20.7304 44.2126 20.6383 44.165 20.5434C44.0924 20.4125 44.0924 20.4125 44.0182 20.2789C43.9617 20.177 43.9052 20.0751 43.8471 19.9701C43.7854 19.8602 43.7237 19.7503 43.6602 19.637C43.5942 19.5189 43.5283 19.4008 43.4603 19.2791C42.6383 17.8147 41.7876 16.3669 40.9382 14.9183C40.4949 14.162 40.0528 13.405 39.6109 12.6479C39.5241 12.4993 39.4374 12.3508 39.348 12.1977C38.5861 10.8912 37.8303 9.58111 37.0762 8.27003C36.6491 7.52816 36.2202 6.78756 35.7826 6.05178C35.7109 5.93109 35.6392 5.8104 35.5653 5.68605C35.434 5.46592 35.3022 5.24613 35.1696 5.02675C34.746 4.31682 34.746 4.31682 34.746 3.9803C34.6533 3.98212 34.5606 3.98393 34.465 3.98581C32.2058 4.02943 29.9465 4.06204 27.6869 4.0825C26.5941 4.09266 25.5016 4.1065 24.409 4.1291C23.4564 4.14881 22.5039 4.1615 21.551 4.16589C21.0466 4.16845 20.5429 4.17549 20.0386 4.18885C16.9666 4.26699 16.9666 4.26699 16.2558 3.79118C15.7616 3.27204 15.5539 2.68209 15.3244 2.0078C15.1544 1.71594 14.9785 1.42733 14.7934 1.14483C14.4141 0.528419 14.4141 0.528419 14.4141 0.187024Z" fill="#9A9A9A"/>
<path d="M217.279 6.55859C218.731 6.55859 220.183 6.55859 221.679 6.55859C221.679 16.1723 221.679 25.7859 221.679 35.6909C225.635 35.6909 229.591 35.6909 233.666 35.6909C233.666 37.143 233.666 38.5951 233.666 40.0911C228.259 40.0911 222.851 40.0911 217.279 40.0911C217.279 29.0254 217.279 17.9597 217.279 6.55859Z" fill="#9A9A9A"/>
<path d="M18.0566 6.4082C23.1138 6.4082 28.171 6.4082 33.3815 6.4082C34.0324 7.55984 34.6833 8.71148 35.354 9.89802C35.7032 10.503 36.0529 11.1071 36.4066 11.7093C36.5852 12.0145 36.7638 12.3198 36.9424 12.625C37.031 12.7762 37.1196 12.9275 37.2109 13.0833C38.4348 15.1726 39.6532 17.2651 40.8637 19.3622C40.9628 19.5337 41.0618 19.7053 41.1639 19.882C41.2551 20.0402 41.3464 20.1985 41.4404 20.3615C41.5214 20.502 41.6025 20.6425 41.686 20.7873C41.8059 20.9985 41.9215 21.2123 42.0301 21.4296C41.8721 21.7823 41.8721 21.7823 41.6218 22.2273C41.5296 22.3924 41.4373 22.5575 41.3423 22.7275C41.2397 22.9082 41.1371 23.0887 41.0344 23.2693C40.9294 23.4559 40.8245 23.6425 40.7196 23.8291C39.9743 25.1526 39.213 26.4668 38.4437 27.7766C37.6243 29.1719 36.8225 30.577 36.0241 31.9843C35.5152 32.8788 34.9974 33.7627 34.4436 34.6302C33.858 33.9465 33.4036 33.2014 32.9452 32.4301C32.8658 32.3023 32.7864 32.1746 32.7046 32.043C32.5943 31.8567 32.5943 31.8567 32.4818 31.6667C32.4141 31.5547 32.3465 31.4427 32.2768 31.3273C32.1249 30.8559 32.2481 30.665 32.4711 30.23C32.6178 29.947 32.7691 29.6664 32.9239 29.3877C33.0603 29.1419 33.0603 29.1419 33.1994 28.8911C33.3458 28.6291 33.3458 28.6291 33.4953 28.3618C33.5451 28.2723 33.595 28.1828 33.6463 28.0906C36.3548 23.2301 36.3548 23.2301 37.1352 22.1144C37.3596 21.7469 37.3596 21.7469 37.3023 21.3506C37.1691 20.9579 37.0095 20.6246 36.8031 20.2649C36.7256 20.1287 36.648 19.9924 36.5681 19.8521C36.4835 19.7061 36.3989 19.5601 36.3118 19.4097C36.2239 19.2561 36.1359 19.1026 36.0454 18.9444C35.7656 18.457 35.4842 17.9707 35.2022 17.4846C35.1133 17.3309 35.0244 17.1773 34.9328 17.019C34.1313 15.6356 33.3249 14.2552 32.5055 12.8823C32.3679 12.6512 32.3679 12.6512 32.2275 12.4155C32.0519 12.1211 31.8757 11.827 31.6988 11.5332C31.6208 11.4024 31.5427 11.2716 31.4623 11.1368C31.3932 11.0217 31.3241 10.9066 31.2529 10.788C31.1055 10.5049 31.1055 10.5049 31.1055 10.2015C30.9707 10.2045 30.8358 10.2075 30.6969 10.2107C29.4245 10.2381 28.1521 10.2588 26.8795 10.2722C26.2252 10.2794 25.5712 10.289 24.9171 10.3045C24.2854 10.3194 23.654 10.3275 23.0222 10.331C22.7816 10.3336 22.5409 10.3385 22.3003 10.3459C20.4153 10.4014 20.4153 10.4014 19.8379 9.90903C19.6008 9.55873 19.433 9.22544 19.2705 8.8359C19.1551 8.63845 19.0375 8.4423 18.9161 8.24853C18.8124 8.06845 18.7093 7.88807 18.6067 7.7074C18.5529 7.61479 18.4991 7.52218 18.4437 7.42676C18.0566 6.74908 18.0566 6.74908 18.0566 6.4082Z" fill="#9A9A9A"/>
<path d="M21.6973 12.6289C24.351 12.6289 27.0048 12.6289 29.739 12.6289C30.2319 13.4832 30.2319 13.4832 30.7347 14.3548C30.8447 14.5455 30.9547 14.7361 31.068 14.9325C31.5451 15.7593 32.0221 16.5861 32.4987 17.4132C32.6547 17.6839 32.8108 17.9546 32.9668 18.2252C33.1636 18.5666 33.3603 18.9079 33.5569 19.2493C33.6466 19.4048 33.7362 19.5603 33.8286 19.7206C33.9071 19.8567 33.9856 19.9929 34.0665 20.1333C34.2855 20.5258 34.2855 20.5258 34.5664 20.8912C34.7461 21.2776 34.7461 21.2776 34.6528 21.7257C34.4432 22.1868 34.2181 22.6222 33.9632 23.0598C33.8683 23.2235 33.7735 23.3871 33.6758 23.5557C33.5752 23.7271 33.4747 23.8985 33.3711 24.0751C33.268 24.2522 33.1649 24.4293 33.0619 24.6064C32.3198 25.8807 31.5681 27.1494 30.8011 28.4089C30.2156 27.7253 29.7611 26.9802 29.3028 26.2088C29.2234 26.0811 29.144 25.9534 29.0621 25.8218C28.9886 25.6976 28.9151 25.5734 28.8393 25.4454C28.7716 25.3335 28.704 25.2215 28.6343 25.1061C28.5252 24.7674 28.5252 24.7674 28.6361 24.3818C28.804 24.0565 28.9749 23.7414 29.1676 23.4303C29.2296 23.3266 29.2916 23.2229 29.3555 23.1161C29.4854 22.9009 29.617 22.6867 29.7503 22.4736C29.8115 22.37 29.8727 22.2663 29.9358 22.1595C30.0211 22.0202 30.0211 22.0202 30.1081 21.878C30.2723 21.3118 29.9165 20.8698 29.6498 20.3789C29.557 20.2196 29.4642 20.0602 29.3686 19.896C29.3188 19.8102 29.2691 19.7245 29.2179 19.6361C29.0602 19.3642 28.9017 19.0928 28.7433 18.8214C28.5844 18.5483 28.4257 18.2751 28.267 18.0019C28.1236 17.7551 27.9799 17.5085 27.8361 17.2619C27.706 17.0358 27.5797 16.8073 27.463 16.5739C27.3585 16.5876 27.2539 16.6013 27.1461 16.6154C25.9821 16.7415 24.7808 16.8489 23.6698 16.4222C22.6908 15.5178 22.1244 14.1777 21.6973 12.9324C21.6973 12.8322 21.6973 12.7321 21.6973 12.6289Z" fill="#9A9A9A"/>
</svg>
