<svg width="373" height="29" viewBox="0 0 373 29" fill="none" xmlns="http://www.w3.org/2000/svg">
<path d="M369.909 28.2889C369.057 28.2889 368.326 27.9876 367.714 27.3851C367.112 26.7739 366.811 26.0423 366.811 25.1901C366.811 24.3466 367.112 23.6235 367.714 23.021C368.326 22.4185 369.057 22.1172 369.909 22.1172C370.736 22.1172 371.459 22.4185 372.078 23.021C372.698 23.6235 373.008 24.3466 373.008 25.1901C373.008 25.7582 372.862 26.279 372.569 26.7524C372.285 27.2172 371.911 27.5917 371.446 27.8757C370.981 28.1512 370.469 28.2889 369.909 28.2889Z" fill="#9A9A9A"/>
<path d="M354.32 28.3429C352.288 28.3429 350.541 27.9125 349.078 27.0517C347.623 26.1823 346.504 24.9773 345.721 23.4365C344.946 21.8957 344.559 20.1225 344.559 18.117C344.559 16.0856 344.95 14.3038 345.734 12.7716C346.525 11.2308 347.649 10.0301 349.103 9.16929C350.558 8.29992 352.288 7.86523 354.294 7.86523C356.024 7.86523 357.539 8.17941 358.839 8.80777C360.139 9.43613 361.167 10.3184 361.925 11.4546C362.682 12.5908 363.1 13.925 363.177 15.4572H357.987C357.84 14.4673 357.453 13.6711 356.825 13.0686C356.205 12.4574 355.391 12.1518 354.384 12.1518C353.532 12.1518 352.788 12.3843 352.151 12.8491C351.522 13.3053 351.032 13.9724 350.679 14.8504C350.326 15.7283 350.149 16.7914 350.149 18.0395C350.149 19.3048 350.321 20.3808 350.666 21.2674C351.019 22.1539 351.514 22.8297 352.151 23.2945C352.788 23.7593 353.532 23.9917 354.384 23.9917C355.013 23.9917 355.576 23.8626 356.076 23.6043C356.584 23.3461 357.001 22.9717 357.328 22.481C357.664 21.9818 357.883 21.3836 357.987 20.6863H363.177C363.091 22.2013 362.678 23.5355 361.938 24.6889C361.206 25.8337 360.195 26.7289 358.903 27.3745C357.612 28.0201 356.084 28.3429 354.32 28.3429Z" fill="#9A9A9A"/>
<path d="M328.241 16.4901V27.9555H322.74V8.12346H327.982V11.6225H328.215C328.654 10.4691 329.39 9.55664 330.423 8.88524C331.456 8.20524 332.708 7.86523 334.18 7.86523C335.557 7.86523 336.758 8.1665 337.782 8.76904C338.807 9.37157 339.603 10.2323 340.171 11.3513C340.739 12.4617 341.023 13.7873 341.023 15.3281V27.9555H335.523V16.3093C335.531 15.0957 335.221 14.1488 334.593 13.4688C333.965 12.7802 333.1 12.4359 331.998 12.4359C331.258 12.4359 330.603 12.5951 330.035 12.9136C329.476 13.2321 329.037 13.6969 328.718 14.3081C328.408 14.9106 328.249 15.638 328.241 16.4901Z" fill="#9A9A9A"/>
<path d="M318.241 1.51172V27.9545H312.65V1.51172H318.241Z" fill="#9A9A9A"/>
<path d="M291.442 28.3429C289.402 28.3429 287.646 27.9297 286.174 27.1034C284.711 26.2684 283.583 25.0892 282.791 23.5656C281.999 22.0334 281.604 20.2215 281.604 18.1299C281.604 16.0899 281.999 14.2995 282.791 12.7587C283.583 11.2179 284.698 10.0171 286.135 9.15638C287.582 8.29562 289.277 7.86523 291.223 7.86523C292.531 7.86523 293.749 8.07612 294.877 8.4979C296.013 8.91106 297.003 9.53512 297.846 10.3701C298.698 11.205 299.361 12.2551 299.835 13.5205C300.308 14.7772 300.545 16.2491 300.545 17.9362V19.4468H283.798V16.0382H295.367C295.367 15.2463 295.195 14.5448 294.851 13.9336C294.507 13.3225 294.029 12.8448 293.418 12.5005C292.815 12.1475 292.114 11.9711 291.313 11.9711C290.478 11.9711 289.738 12.1648 289.092 12.5521C288.455 12.9308 287.956 13.443 287.594 14.0886C287.233 14.7255 287.048 15.4357 287.039 16.219V19.4598C287.039 20.441 287.22 21.2889 287.582 22.0033C287.952 22.7178 288.472 23.2686 289.144 23.656C289.815 24.0433 290.612 24.237 291.533 24.237C292.144 24.237 292.703 24.1509 293.211 23.9788C293.719 23.8066 294.154 23.5484 294.515 23.2041C294.877 22.8598 295.152 22.438 295.341 21.9388L300.429 22.2745C300.17 23.4967 299.641 24.5641 298.841 25.4765C298.049 26.3803 297.024 27.0861 295.768 27.594C294.519 28.0932 293.078 28.3429 291.442 28.3429Z" fill="#9A9A9A"/>
<path d="M270.025 28.3429C267.993 28.3429 266.246 27.9125 264.783 27.0517C263.328 26.1823 262.209 24.9773 261.426 23.4365C260.651 21.8957 260.264 20.1225 260.264 18.117C260.264 16.0856 260.655 14.3038 261.439 12.7716C262.231 11.2308 263.354 10.0301 264.809 9.16929C266.263 8.29992 267.993 7.86523 269.999 7.86523C271.729 7.86523 273.244 8.17941 274.544 8.80777C275.844 9.43613 276.872 10.3184 277.63 11.4546C278.387 12.5908 278.805 13.925 278.882 15.4572H273.692C273.545 14.4673 273.158 13.6711 272.53 13.0686C271.91 12.4574 271.097 12.1518 270.089 12.1518C269.237 12.1518 268.493 12.3843 267.856 12.8491C267.227 13.3053 266.737 13.9724 266.384 14.8504C266.031 15.7283 265.854 16.7914 265.854 18.0395C265.854 19.3048 266.027 20.3808 266.371 21.2674C266.724 22.1539 267.219 22.8297 267.856 23.2945C268.493 23.7593 269.237 23.9917 270.089 23.9917C270.718 23.9917 271.282 23.8626 271.781 23.6043C272.289 23.3461 272.706 22.9717 273.033 22.481C273.369 21.9818 273.588 21.3836 273.692 20.6863H278.882C278.796 22.2013 278.383 23.5355 277.643 24.6889C276.911 25.8337 275.9 26.7289 274.608 27.3745C273.317 28.0201 271.789 28.3429 270.025 28.3429Z" fill="#9A9A9A"/>
<path d="M247.109 27.9559V8.1239H252.442V11.5842H252.648C253.01 10.3533 253.617 9.42365 254.469 8.7953C255.321 8.15833 256.302 7.83984 257.413 7.83984C257.688 7.83984 257.985 7.85706 258.304 7.89149C258.622 7.92592 258.902 7.97326 259.143 8.03352V12.9141C258.885 12.8366 258.528 12.7677 258.071 12.7075C257.615 12.6472 257.198 12.6171 256.819 12.6171C256.01 12.6171 255.287 12.7936 254.65 13.1465C254.021 13.4908 253.522 13.9728 253.152 14.5926C252.79 15.2123 252.61 15.9267 252.61 16.7359V27.9559H247.109Z" fill="#9A9A9A"/>
<path d="M237.21 19.511V8.12305H242.71V27.9551H237.43V24.3528H237.223C236.775 25.5148 236.031 26.4488 234.989 27.1546C233.956 27.8604 232.695 28.2133 231.206 28.2133C229.881 28.2133 228.714 27.9121 227.707 27.3095C226.7 26.707 225.912 25.8505 225.344 24.7401C224.785 23.6297 224.501 22.2999 224.492 20.7505V8.12305H229.993V19.7692C230.001 20.9399 230.315 21.8652 230.935 22.5452C231.555 23.2252 232.385 23.5652 233.427 23.5652C234.09 23.5652 234.71 23.4146 235.286 23.1133C235.863 22.8034 236.328 22.3472 236.681 21.7447C237.042 21.1421 237.219 20.3976 237.21 19.511Z" fill="#9A9A9A"/>
<path d="M211.156 28.3429C209.15 28.3429 207.416 27.9168 205.952 27.0646C204.498 26.2039 203.374 25.0074 202.582 23.4752C201.79 21.9345 201.395 20.1484 201.395 18.117C201.395 16.0683 201.79 14.2779 202.582 12.7458C203.374 11.205 204.498 10.0085 205.952 9.15638C207.416 8.29562 209.15 7.86523 211.156 7.86523C213.161 7.86523 214.891 8.29562 216.346 9.15638C217.809 10.0085 218.937 11.205 219.729 12.7458C220.521 14.2779 220.917 16.0683 220.917 18.117C220.917 20.1484 220.521 21.9345 219.729 23.4752C218.937 25.0074 217.809 26.2039 216.346 27.0646C214.891 27.9168 213.161 28.3429 211.156 28.3429ZM211.182 24.0821C212.094 24.0821 212.856 23.8238 213.467 23.3074C214.078 22.7823 214.539 22.0679 214.848 21.1641C215.167 20.2603 215.326 19.2317 215.326 18.0782C215.326 16.9248 215.167 15.8962 214.848 14.9924C214.539 14.0886 214.078 13.3741 213.467 12.8491C212.856 12.324 212.094 12.0615 211.182 12.0615C210.261 12.0615 209.486 12.324 208.857 12.8491C208.238 13.3741 207.769 14.0886 207.45 14.9924C207.14 15.8962 206.985 16.9248 206.985 18.0782C206.985 19.2317 207.14 20.2603 207.45 21.1641C207.769 22.0679 208.238 22.7823 208.857 23.3074C209.486 23.8238 210.261 24.0821 211.182 24.0821Z" fill="#9A9A9A"/>
<path d="M192.814 9.11678C192.711 8.07525 192.268 7.26613 191.484 6.68942C190.701 6.11271 189.638 5.82435 188.295 5.82435C187.383 5.82435 186.612 5.95346 185.984 6.2117C185.356 6.46132 184.874 6.80993 184.538 7.25753C184.211 7.70513 184.047 8.21298 184.047 8.78108C184.03 9.2545 184.129 9.66767 184.344 10.0206C184.568 10.3735 184.874 10.6791 185.261 10.9373C185.648 11.1869 186.096 11.4064 186.604 11.5958C187.112 11.7765 187.654 11.9315 188.231 12.0606L190.606 12.6287C191.76 12.8869 192.818 13.2312 193.783 13.6616C194.747 14.092 195.582 14.6214 196.287 15.2497C196.993 15.8781 197.54 16.6184 197.927 17.4705C198.323 18.3227 198.525 19.2996 198.534 20.4014C198.525 22.0197 198.112 23.4227 197.294 24.6106C196.485 25.7898 195.315 26.7065 193.783 27.3607C192.259 28.0063 190.421 28.3291 188.269 28.3291C186.135 28.3291 184.275 28.002 182.691 27.3478C181.116 26.6936 179.885 25.7253 178.999 24.4427C178.121 23.1516 177.66 21.5548 177.617 19.6526H183.027C183.087 20.5391 183.341 21.2794 183.789 21.8733C184.245 22.4587 184.852 22.9019 185.609 23.2032C186.376 23.4959 187.241 23.6422 188.205 23.6422C189.152 23.6422 189.974 23.5045 190.671 23.229C191.377 22.9536 191.923 22.5706 192.311 22.0799C192.698 21.5893 192.892 21.0255 192.892 20.3885C192.892 19.7946 192.715 19.2953 192.362 18.8908C192.018 18.4862 191.51 18.1419 190.839 17.8579C190.176 17.5738 189.362 17.3156 188.398 17.0832L185.519 16.3601C183.29 15.8178 181.529 14.97 180.238 13.8166C178.947 12.6631 178.306 11.1095 178.314 9.15551C178.306 7.55449 178.732 6.15575 179.593 4.95928C180.462 3.76282 181.654 2.82889 183.169 2.15749C184.684 1.48609 186.406 1.15039 188.334 1.15039C190.296 1.15039 192.009 1.48609 193.473 2.15749C194.945 2.82889 196.089 3.76282 196.907 4.95928C197.725 6.15575 198.147 7.54158 198.172 9.11678H192.814Z" fill="#9A9A9A"/>
<path d="M157.262 28.3429C155.222 28.3429 153.466 27.9297 151.995 27.1034C150.531 26.2684 149.404 25.0892 148.612 23.5656C147.82 22.0334 147.424 20.2215 147.424 18.1299C147.424 16.0899 147.82 14.2995 148.612 12.7587C149.404 11.2179 150.518 10.0171 151.956 9.15638C153.402 8.29562 155.098 7.86523 157.043 7.86523C158.351 7.86523 159.569 8.07612 160.697 8.4979C161.833 8.91106 162.823 9.53512 163.667 10.3701C164.519 11.205 165.182 12.2551 165.655 13.5205C166.128 14.7772 166.365 16.2491 166.365 17.9362V19.4468H149.619V16.0382H161.188C161.188 15.2463 161.015 14.5448 160.671 13.9336C160.327 13.3225 159.849 12.8448 159.238 12.5005C158.635 12.1475 157.934 11.9711 157.133 11.9711C156.298 11.9711 155.558 12.1648 154.913 12.5521C154.276 12.9308 153.776 13.443 153.415 14.0886C153.053 14.7255 152.868 15.4357 152.86 16.219V19.4598C152.86 20.441 153.04 21.2889 153.402 22.0033C153.772 22.7178 154.293 23.2686 154.964 23.656C155.636 24.0433 156.432 24.237 157.353 24.237C157.964 24.237 158.524 24.1509 159.031 23.9788C159.539 23.8066 159.974 23.5484 160.335 23.2041C160.697 22.8598 160.972 22.438 161.162 21.9388L166.249 22.2745C165.991 23.4967 165.461 24.5641 164.661 25.4765C163.869 26.3803 162.845 27.0861 161.588 27.594C160.34 28.0932 158.898 28.3429 157.262 28.3429Z" fill="#9A9A9A"/>
<path d="M131.106 16.4901V27.9555H125.605V8.12346H130.848V11.6225H131.08C131.519 10.4691 132.255 9.55664 133.288 8.88524C134.321 8.20524 135.573 7.86523 137.045 7.86523C138.422 7.86523 139.623 8.1665 140.647 8.76904C141.672 9.37157 142.468 10.2323 143.036 11.3513C143.604 12.4617 143.888 13.7873 143.888 15.3281V27.9555H138.388V16.3093C138.397 15.0957 138.087 14.1488 137.458 13.4688C136.83 12.7802 135.965 12.4359 134.863 12.4359C134.123 12.4359 133.469 12.5951 132.901 12.9136C132.341 13.2321 131.902 13.6969 131.584 14.3081C131.274 14.9106 131.114 15.638 131.106 16.4901Z" fill="#9A9A9A"/>
<path d="M115.697 27.9534V8.12133H121.197V27.9534H115.697ZM118.46 5.56485C117.642 5.56485 116.941 5.29371 116.355 4.75143C115.779 4.20054 115.49 3.54205 115.49 2.77597C115.49 2.0185 115.779 1.36862 116.355 0.826337C116.941 0.275445 117.642 0 118.46 0C119.278 0 119.975 0.275445 120.552 0.826337C121.137 1.36862 121.43 2.0185 121.43 2.77597C121.43 3.54205 121.137 4.20054 120.552 4.75143C119.975 5.29371 119.278 5.56485 118.46 5.56485Z" fill="#9A9A9A"/>
<path d="M84.0799 27.9545L76.5137 1.51172H82.6209L86.9979 19.8848H87.2174L92.0463 1.51172H97.2755L102.092 19.9235H102.324L106.701 1.51172H112.808L105.242 27.9545H99.7933L94.7578 10.666H94.5512L89.5286 27.9545H84.0799Z" fill="#9A9A9A"/>
<path d="M56.9187 28.3429C54.8787 28.3429 53.1227 27.9297 51.6508 27.1034C50.1875 26.2684 49.0599 25.0892 48.2679 23.5656C47.476 22.0334 47.0801 20.2215 47.0801 18.1299C47.0801 16.0899 47.476 14.2995 48.2679 12.7587C49.0599 11.2179 50.1746 10.0171 51.6121 9.15638C53.0582 8.29562 54.7539 7.86523 56.6992 7.86523C58.0076 7.86523 59.2256 8.07612 60.3532 8.4979C61.4894 8.91106 62.4793 9.53512 63.3229 10.3701C64.175 11.205 64.8378 12.2551 65.3113 13.5205C65.7847 14.7772 66.0214 16.2491 66.0214 17.9362V19.4468H49.2751V16.0382H60.8439C60.8439 15.2463 60.6717 14.5448 60.3274 13.9336C59.9831 13.3225 59.5053 12.8448 58.8942 12.5005C58.2917 12.1475 57.5901 11.9711 56.7896 11.9711C55.9547 11.9711 55.2144 12.1648 54.5688 12.5521C53.9318 12.9308 53.4326 13.443 53.0711 14.0886C52.7095 14.7255 52.5245 15.4357 52.5159 16.219V19.4598C52.5159 20.441 52.6966 21.2889 53.0582 22.0033C53.4283 22.7178 53.9491 23.2686 54.6205 23.656C55.2919 24.0433 56.0881 24.237 57.0091 24.237C57.6203 24.237 58.1798 24.1509 58.6876 23.9788C59.1955 23.8066 59.6302 23.5484 59.9917 23.2041C60.3532 22.8598 60.6287 22.438 60.818 21.9388L65.9052 22.2745C65.647 23.4967 65.1176 24.5641 64.3171 25.4765C63.5252 26.3803 62.5008 27.0861 61.2441 27.594C59.996 28.0932 58.5542 28.3429 56.9187 28.3429Z" fill="#9A9A9A"/>
<path d="M30.6918 16.489V27.9545H25.1914V1.51172H30.5368V11.6214H30.7692C31.2168 10.4508 31.9399 9.53406 32.9384 8.87127C33.9369 8.19987 35.1893 7.86417 36.6956 7.86417C38.0729 7.86417 39.2737 8.16544 40.298 8.76798C41.3309 9.3619 42.1314 10.2184 42.6995 11.3374C43.2763 12.4478 43.5603 13.7776 43.5517 15.327V27.9545H38.0514V16.3083C38.06 15.086 37.7501 14.1349 37.1217 13.4548C36.502 12.7748 35.6326 12.4348 34.5136 12.4348C33.7647 12.4348 33.1019 12.5941 32.5252 12.9126C31.9571 13.231 31.5095 13.6959 31.1824 14.307C30.8639 14.9095 30.7004 15.6369 30.6918 16.489Z" fill="#9A9A9A"/>
<path d="M0 6.12112V1.51172H21.7173V6.12112H13.6217V27.9545H8.09558V6.12112H0Z" fill="#9A9A9A"/>
</svg>
