<svg width="756" height="182" viewBox="0 0 756 182" fill="none" xmlns="http://www.w3.org/2000/svg">
<path d="M-4.74456e-05 107.192L100.745 6.44727L139.301 45.0038L38.5565 145.748L-4.74456e-05 107.192Z" fill="#27AE61"/>
<path d="M100.736 6.44727L174.063 79.7738L135.492 118.345L62.1653 45.0183L100.736 6.44727Z" fill="#27AE61"/>
<path d="M100.71 6.44745L62.1262 45.0312L100.71 83.615L139.294 45.0312L100.71 6.44745Z" fill="#28DD71"/>
<path d="M394.79 39.2061C402.258 39.2061 409.148 41.1626 415.46 45.0742C421.772 48.9415 426.818 54.7868 430.597 62.6104C434.375 70.3894 436.264 80.1467 436.264 91.8818C436.264 103.306 434.419 112.952 430.729 120.82C427.084 128.644 422.106 134.578 415.794 138.623C409.526 142.624 402.503 144.624 394.724 144.624C389.212 144.624 384.522 143.713 380.654 141.891C376.831 140.068 373.698 137.778 371.253 135.022C368.808 132.222 366.941 129.399 365.652 126.555H364.785V181.363H336.381V40.54H364.385V57.7432H365.652C366.897 54.9873 368.697 52.1866 371.053 49.3418C373.453 46.4525 376.565 44.052 380.388 42.1406C384.255 40.1848 389.056 39.2061 394.79 39.2061ZM494.424 6.40137C504.47 6.40137 512.849 7.89087 519.562 10.8691C526.274 13.8474 531.319 17.9809 534.697 23.2705C538.043 28.4652 539.73 34.4448 539.763 41.209H566.384V101.353C566.428 107.398 568.05 112.177 571.251 115.688C574.451 119.2 578.742 120.956 584.12 120.956C587.543 120.956 590.743 120.178 593.722 118.622C596.7 117.022 599.1 114.665 600.923 111.554C602.79 108.442 603.701 104.597 603.656 100.019V41.209H632.062V143.626H604.79V125.023H603.723C601.411 131.024 597.566 135.847 592.188 139.492C586.853 143.137 580.341 144.96 572.651 144.96C565.806 144.96 559.783 143.404 554.582 140.292C549.381 137.18 545.314 132.758 542.38 127.023C541.735 125.743 541.16 124.406 540.656 123.012C540.352 123.555 540.033 124.092 539.698 124.621C536.142 130.266 530.874 134.734 523.896 138.023C516.917 141.313 508.315 142.957 498.092 142.957H439.748V6.40137H494.424ZM248.604 92.6152C248.604 97.8161 249.738 102.439 252.005 106.484C254.316 110.529 257.561 113.708 261.739 116.02C265.918 118.331 270.785 119.487 276.342 119.487C281.943 119.487 286.81 118.331 290.944 116.02C295.123 113.708 298.345 110.529 300.612 106.484C302.924 102.439 304.08 97.8161 304.08 92.6152V6.40137H332.951V95.083C332.951 105.04 330.573 113.753 325.816 121.221C321.105 128.688 314.504 134.512 306.014 138.69C297.523 142.824 287.633 144.891 276.342 144.891C265.007 144.891 255.094 142.824 246.604 138.69C238.113 134.512 231.513 128.688 226.801 121.221C222.089 113.753 219.732 105.04 219.732 95.083V6.40137H248.604V92.6152ZM683.05 0C687.406 1.33864e-06 691.385 0.333218 694.985 1C698.63 1.66676 701.342 2.26737 703.12 2.80078L698.052 24.1377C696.941 23.7821 695.563 23.4479 693.918 23.1367C692.318 22.8256 690.673 22.6709 688.984 22.6709C684.806 22.6709 681.894 23.6486 680.249 25.6045C678.605 27.5158 677.782 30.205 677.782 33.6719V40.54H698.186V40.6436H701.574V33.2422C701.574 25.8189 703.019 19.6621 705.908 14.7725C708.842 9.88291 712.843 6.21531 717.91 3.77051C722.978 1.32575 728.734 0.103516 735.18 0.103516C739.536 0.103519 743.515 0.436735 747.115 1.10352C750.76 1.77028 753.472 2.37088 755.25 2.9043L750.182 24.2412C749.07 23.8856 747.692 23.5523 746.048 23.2412C744.448 22.9301 742.803 22.7744 741.114 22.7744C736.936 22.7744 734.024 23.7521 732.379 25.708C730.734 27.6194 729.912 30.3092 729.912 33.7764V40.6436H750.315V61.9805H729.912V143.061H701.574V61.9805H687.104V61.877H677.782V142.957H649.444V61.877H634.975V40.54H649.444V33.1387C649.444 25.7153 650.889 19.5586 653.778 14.6689C656.712 9.77933 660.713 6.11182 665.78 3.66699C670.848 1.2222 676.604 0 683.05 0ZM385.722 61.8105C381.099 61.8106 377.188 63.0329 373.987 65.4775C370.831 67.9224 368.408 71.3894 366.719 75.8789C365.03 80.3685 364.186 85.6591 364.186 91.749C364.186 97.8387 365.03 103.151 366.719 107.685C368.408 112.219 370.853 115.752 374.054 118.286C377.254 120.775 381.143 122.02 385.722 122.021C390.345 122.021 394.257 120.753 397.457 118.22C400.658 115.642 403.081 112.085 404.726 107.551C406.415 102.972 407.259 97.7052 407.259 91.749C407.259 85.8369 406.437 80.6351 404.792 76.1455C403.147 71.6563 400.725 68.145 397.524 65.6113C394.324 63.0776 390.389 61.8105 385.722 61.8105ZM468.62 119.354H492.157C500.203 119.354 506.07 117.82 509.76 114.753C513.449 111.641 515.294 107.507 515.294 102.351C515.294 98.5722 514.383 95.238 512.561 92.3486C510.738 89.4595 508.138 87.1925 504.76 85.5479C501.426 83.9032 497.447 83.0811 492.824 83.0811H468.62V119.354ZM537.979 52.2812C537.575 53.3874 537.104 54.453 536.564 55.4766C534.431 59.4771 531.497 62.7666 527.763 65.3447C524.073 67.8783 519.851 69.6783 515.095 70.7451V72.0791C520.295 72.3014 525.163 73.768 529.697 76.4795C532.875 78.3618 535.636 80.7693 537.979 83.7012V52.2812ZM468.62 63.5439H490.023C493.98 63.5439 497.491 62.8555 500.559 61.4775C503.67 60.0551 506.115 58.0547 507.894 55.4766C509.716 52.8984 510.627 49.8086 510.627 46.208C510.627 41.2738 508.871 37.2952 505.359 34.2725C501.892 31.2498 496.958 29.7383 490.557 29.7383H468.62V63.5439Z" fill="white"/>
</svg>
