<svg width="92" height="92" viewBox="0 0 92 92" fill="none" xmlns="http://www.w3.org/2000/svg">
<path d="M45.9628 91.9256C71.3474 91.9256 91.9256 71.3474 91.9256 45.9628C91.9256 20.5783 71.3474 0 45.9628 0C20.5783 0 0 20.5783 0 45.9628C0 71.3474 20.5783 91.9256 45.9628 91.9256Z" fill="#00EB70"/>
<path d="M45.9259 91.9254C53.7013 91.9254 60.9787 89.972 67.4135 86.5631C65.9197 82.6946 63.3918 79.2857 59.9829 76.7194C59.1402 76.1066 58.2976 75.532 57.3783 75.0341C57.3783 75.0341 57.34 75.0341 57.3017 75.0341C52.8203 72.5827 50.0625 67.8716 50.0625 62.7773H43.5128C43.5128 67.8716 40.7168 72.5827 36.1971 75.0341C35.2778 75.532 34.3969 76.1066 33.5542 76.7194C29.9155 79.4006 27.2727 83.1159 25.8555 87.2909C31.9072 90.2401 38.7251 91.9637 45.9259 91.9637V91.9254Z" fill="#DEAE85"/>
<path d="M46.6526 62.6997C60.2333 62.6997 71.2427 51.6904 71.2427 38.1096C71.2427 24.5289 60.2333 13.5195 46.6526 13.5195C33.0719 13.5195 22.0625 24.5289 22.0625 38.1096C22.0625 51.6904 33.0719 62.6997 46.6526 62.6997Z" fill="#1C2260"/>
<path d="M45.9208 91.9253C53.6962 91.9253 60.9736 89.9719 67.4084 86.5629C65.9146 82.6944 63.3867 79.2472 59.9778 76.7192C59.1351 76.1064 58.2924 75.5319 57.3732 75.0339C57.3732 75.0339 57.3349 75.0339 57.2966 75.0339C56.6072 74.6509 55.9177 74.1913 55.3049 73.6934C55.2283 73.77 55.19 73.8466 55.1134 73.8849C50.4022 78.4812 42.8566 78.4045 38.2603 73.6934C37.6475 74.1913 36.958 74.6509 36.2303 75.0339C35.311 75.5319 34.4301 76.1064 33.5874 76.7192C29.9487 79.4004 27.3059 83.1157 25.8887 87.2524C31.9404 90.2017 38.7583 91.9253 45.9591 91.9253H45.9208Z" fill="#2C00A4"/>
<path d="M46.6535 29.7617C37.2694 29.7617 29.6855 37.3839 29.6855 46.7297V47.1127C29.6855 58.8715 39.9889 68.4088 46.6535 68.4088C53.3181 68.4088 63.6214 58.8715 63.6214 47.1127V46.7297C63.6214 37.3456 55.9993 29.7617 46.6535 29.7617Z" fill="#ECC19C"/>
<path d="M33.0948 58.7169C35.2948 58.7169 37.0782 56.9334 37.0782 54.7334C37.0782 52.5334 35.2948 50.75 33.0948 50.75C30.8948 50.75 29.1113 52.5334 29.1113 54.7334C29.1113 56.9334 30.8948 58.7169 33.0948 58.7169Z" fill="#ECC19C"/>
<path d="M60.212 58.7169C62.412 58.7169 64.1954 56.9334 64.1954 54.7334C64.1954 52.5334 62.412 50.75 60.212 50.75C58.012 50.75 56.2285 52.5334 56.2285 54.7334C56.2285 56.9334 58.012 58.7169 60.212 58.7169Z" fill="#ECC19C"/>
</svg>
