<svg width="93" height="93" viewBox="0 0 93 93" fill="none" xmlns="http://www.w3.org/2000/svg">
<path d="M46.1646 92.3292C71.6606 92.3292 92.3292 71.6606 92.3292 46.1646C92.3292 20.6686 71.6606 0 46.1646 0C20.6686 0 0 20.6686 0 46.1646C0 71.6606 20.6686 92.3292 46.1646 92.3292Z" fill="#FFD400"/>
<path d="M46.1644 92.3288C53.9739 92.3288 61.2833 90.3668 67.7463 86.9429C66.246 83.0574 63.7069 79.6335 60.2831 77.056C59.4367 76.4405 58.5904 75.8634 57.6671 75.3633C57.6671 75.3633 57.6286 75.3633 57.5901 75.3633C53.0891 72.9012 50.3192 68.1693 50.3192 63.0527H43.7408C43.7408 68.1693 40.9324 72.9012 36.3929 75.3633C35.4696 75.8634 34.5848 76.4405 33.7384 77.056C30.0837 79.7489 27.4293 83.4806 26.0059 87.6738C32.0842 90.6361 38.9319 92.3672 46.1644 92.3672V92.3288Z" fill="#DEAE85"/>
<path d="M46.165 92.3315C53.9745 92.3315 61.2839 90.3695 67.7469 86.9456C66.2466 83.0601 63.7075 79.5978 60.2836 77.0587C59.4373 76.4432 58.5909 75.8661 57.6677 75.366C57.6677 75.366 57.6292 75.366 57.5907 75.366C56.8982 74.9813 56.2058 74.5196 55.5902 74.0195C55.5133 74.0965 55.4748 74.1734 55.3979 74.2119C50.666 78.8283 43.0873 78.7514 38.4709 74.0195C37.8554 74.5196 37.1629 74.9813 36.432 75.366C35.5087 75.8661 34.6238 76.4432 33.7775 77.0587C30.1228 79.7516 27.4683 83.4833 26.0449 87.6381C32.1233 90.6003 38.971 92.3315 46.2035 92.3315H46.165Z" fill="#54D7CE"/>
<path d="M29.9297 29.8926V47.3582C29.9297 59.1686 40.2782 68.7478 46.9721 68.7478C53.666 68.7478 64.0145 59.1686 64.0145 47.3582V29.8926H29.9297Z" fill="#ECC19C"/>
<path d="M61.2073 26.4285C57.3987 21.5812 51.5897 18.7728 45.3959 18.7344C33.9317 18.8883 24.7758 28.352 24.9296 39.8162C24.9296 45.7022 27.3148 51.3573 31.6235 55.3967C30.5079 52.5884 29.9693 49.6262 29.9693 46.6255C29.9693 46.4716 29.9693 46.2792 29.9693 46.1254C30.0462 39.8162 35.3551 34.6612 41.6643 34.7381C43.1262 34.7381 44.5496 34.6227 45.973 34.3919C46.7809 34.3149 47.5503 34.1995 48.3582 34.0456C56.2061 32.4683 63.8618 37.7388 64.0157 45.7791C64.0157 46.0869 64.0157 46.3947 64.0157 46.7024C64.0157 49.9724 63.3617 53.2424 62.0537 56.2431C66.0931 54.5889 69.0553 48.6259 69.0553 41.5089C69.0553 33.8917 65.6699 27.6595 61.2073 26.5054V26.4285Z" fill="#1C2260"/>
<path d="M28.4677 58.9745C30.6774 58.9745 32.4687 57.1832 32.4687 54.9736C32.4687 52.7639 30.6774 50.9727 28.4677 50.9727C26.2581 50.9727 24.4668 52.7639 24.4668 54.9736C24.4668 57.1832 26.2581 58.9745 28.4677 58.9745Z" fill="#ECC19C"/>
<path d="M65.708 58.9745C67.9176 58.9745 69.7089 57.1832 69.7089 54.9736C69.7089 52.7639 67.9176 50.9727 65.708 50.9727C63.4983 50.9727 61.707 52.7639 61.707 54.9736C61.707 57.1832 63.4983 58.9745 65.708 58.9745Z" fill="#ECC19C"/>
</svg>
